<svg width="215.026733" height="164.524902" viewBox="0 0 215.027 164.525" fill="none" xmlns="http://www.w3.org/2000/svg" xmlns:xlink="http://www.w3.org/1999/xlink">
	<desc>
			Created with Pixso.
	</desc>
	<defs>
		<linearGradient id="paint_linear_4_114_0" x1="200.562119" y1="8.048462" x2="120.529892" y2="154.626862" gradientUnits="userSpaceOnUse">
			<stop stop-color="#E4E4F3"/>
			<stop offset="1.000000" stop-color="#7B4FFA"/>
		</linearGradient>
	</defs>
	<path id="Vector 49" d="M2.95862 145.281Q4.75439 152.592 13.2767 157.246Q21.9405 161.978 32.9172 161.477Q44.9157 160.929 54.5906 154.078Q65.7222 146.195 71.2403 131.443Q74.9778 121.451 72.7504 115.363Q70.9833 110.534 66.1849 109.649Q61.5121 108.787 57.6234 111.967Q53.3702 115.445 53.4452 121.586Q53.5156 127.361 62.3337 133.245Q71.2923 139.223 86.1464 143.213Q120.715 152.499 153.523 144.966Q192.611 135.99 205.852 105.477Q222.155 67.9088 195.458 3.34552L198.23 2.19913Q225.413 67.937 208.604 106.671Q194.76 138.575 154.195 147.89Q120.659 155.591 85.368 146.11Q70.0375 141.992 60.6686 135.74Q50.5352 128.979 50.4454 121.623Q50.3529 114.037 55.7244 109.645Q60.6891 105.585 66.7289 106.699Q73.212 107.894 75.5677 114.333Q78.1765 121.463 74.0502 132.494Q68.2087 148.11 56.3244 156.526Q45.9315 163.886 33.054 164.474Q21.239 165.013 11.8387 159.879Q2.15631 154.591 0.0452271 145.996L2.95862 145.281ZM0.069397 146.011L0.0452271 145.996C-0.155151 145.181 0.32843 144.382 1.14417 144.182C1.9599 143.982 2.7583 144.465 2.95862 145.281L2.94397 145.305L0.069397 146.011ZM201.388 13.7621L193.443 17.0477L195.698 0L209.334 10.4766L201.388 13.7621L200.242 10.9898L205.786 8.69705L206.36 10.0832L205.446 11.2727L195.93 3.96182L196.844 2.77234L198.331 2.96902L196.757 14.8654L195.27 14.6687L194.697 13.2826L200.242 10.9898L201.388 13.7621ZM200.815 12.376L195.27 14.6687L196.844 2.77234L206.36 10.0832L200.815 12.376" fill="url(#paint_linear_4_114_0)" fill-opacity="1.000000" fill-rule="evenodd"/>
</svg>
