<svg width="1029.000000" height="930.000000" viewBox="0 0 1029 930" fill="none" xmlns="http://www.w3.org/2000/svg" xmlns:xlink="http://www.w3.org/1999/xlink">
	<desc>
			Created with Pixso.
	</desc>
	<defs>
		<filter id="filter_18_457_dd" x="0.000000" y="0.000000" width="1029.000000" height="930.000000" filterUnits="userSpaceOnUse" color-interpolation-filters="sRGB">
			<feFlood flood-opacity="0" result="BackgroundImageFix"/>
			<feBlend mode="normal" in="SourceGraphic" in2="BackgroundImageFix" result="shape"/>
			<feGaussianBlur stdDeviation="66.6667" result="effect_layerBlur_1"/>
		</filter>
		<filter id="filter_4_41_dd" x="67.000000" y="363.000000" width="920.000000" height="477.000000" filterUnits="userSpaceOnUse" color-interpolation-filters="sRGB">
			<feFlood flood-opacity="0" result="BackgroundImageFix"/>
			<feBlend mode="normal" in="SourceGraphic" in2="BackgroundImageFix" result="shape"/>
			<feColorMatrix in="SourceAlpha" type="matrix" values="0 0 0 0 0 0 0 0 0 0 0 0 0 0 0 0 0 0 127 0" result="hardAlpha"/>
			<feOffset dx="0" dy="4"/>
			<feGaussianBlur stdDeviation="0"/>
			<feComposite in2="hardAlpha" operator="arithmetic" k2="-1" k3="1"/>
			<feColorMatrix type="matrix" values="0 0 0 0 0.52157 0 0 0 0 1 0 0 0 0 0.35294 0 0 0 1 0"/>
			<feBlend mode="normal" in2="shape" result="effect_innerShadow_1"/>
			<feGaussianBlur stdDeviation="0" result="effect_layerBlur_2"/>
		</filter>
		<linearGradient id="paint_linear_4_41_0" x1="527.000061" y1="341.634674" x2="527.000061" y2="840.000000" gradientUnits="userSpaceOnUse">
			<stop stop-color="#FA00FF"/>
			<stop offset="1.000000" stop-color="#FA00FF" stop-opacity="0.000000"/>
		</linearGradient>
	</defs>
	<g filter="url(#filter_18_457_dd)">
		<ellipse id="Ellipse 10" rx="314.500000" ry="265.000000" transform="matrix(1 -1 0 0 514.5 465)" fill="#79FF49" fill-opacity="0.620000"/>
	</g>
	<g filter="url(#filter_4_41_dd)">
		<path id="Vector 2" d="M195.035 387.621C200.829 405.445 235.007 464.674 240.224 467.117C245.442 469.56 259.341 443.61 261.66 437.504C261.701 437.397 261.72 437.28 261.72 437.153C261.72 435.123 256.643 430.592 250.428 425.045C240.625 416.297 227.992 405.023 227.992 397.058C227.992 392.37 232.37 388.827 244.28 387.621C259.445 386.086 264.752 382.864 264.752 379.243C264.752 371.936 243.142 363 237.327 363C230.868 363 194.357 367.064 194.357 383.585C194.357 384.856 194.573 386.2 195.035 387.621ZM880.087 464.374C880.667 433.839 887.623 407.723 892.261 385.738C892.945 381.914 893.303 378.533 893.303 375.685C893.303 362.165 885.228 360.675 865.594 380.853C850.569 396.296 844.579 389.471 839.422 383.596C836.422 380.178 833.704 377.081 829.653 378.878C818.638 383.763 819.218 392.313 810.522 404.526C805.817 411.136 804.337 420.965 804.337 430.529C804.337 438.638 805.401 446.556 806.465 452.16C808.783 464.374 823.276 464.374 829.653 472.923C836.029 481.472 837.769 499.792 837.769 514.448L837.769 514.45C837.769 529.106 833.131 541.32 829.653 554.755C829.177 556.591 828.962 558.199 828.962 559.617C828.962 566.725 834.382 569.036 839.622 571.27C840.981 571.849 842.328 572.424 843.566 573.075C850.522 576.74 863.276 601.167 873.131 615.823C882.986 630.48 885.884 624.373 890.522 606.052C892.283 599.094 892.958 595.131 892.958 592.155C892.958 589.343 892.355 587.413 891.499 584.67C890.877 582.675 890.12 580.249 889.363 576.74C886.579 563.837 880.053 500.249 880.053 468.181C880.053 466.856 880.064 465.585 880.087 464.374ZM908.493 374.746C901.554 389.365 897.937 400.096 897.937 405.076C897.937 406.337 898.169 407.23 898.638 407.723C900.957 410.166 918.927 382.074 920.667 377.189C920.821 376.756 920.893 376.314 920.893 375.873C920.893 371.337 913.248 366.954 908.493 374.746ZM773.299 388.516C773.299 389.945 773.345 391.601 773.421 393.534C773.183 394.915 772.992 396.792 772.992 398.813C772.992 403.346 773.951 408.606 777.479 410.633C783.856 414.297 787.334 424.068 792.552 433.839C796.758 441.717 797.95 432.922 797.95 424.737C797.95 422.77 797.881 420.839 797.769 419.183C797.726 418.549 797.705 417.867 797.705 417.143C797.705 408.11 800.926 392.447 804.146 378.878C804.518 377.308 804.691 376.005 804.691 374.934C804.691 367.663 796.727 371.05 789.02 374.327C787.252 375.079 785.498 375.825 783.856 376.435C782.881 376.797 781.992 377.112 781.18 377.399C774.87 379.63 773.299 380.186 773.299 388.516ZM423.279 397.198C423.305 397.91 423.317 398.645 423.317 399.397C423.317 404.08 422.853 409.477 422.402 414.713C421.977 419.648 421.565 424.44 421.565 428.358C421.565 434.516 422.584 438.513 426.178 437.504C434.874 435.061 446.468 425.29 452.844 417.962C459.221 410.633 475.453 408.191 484.728 406.969C490.347 406.229 495.54 392.373 495.54 382.105C495.54 375.422 493.34 370.26 487.627 371.223C481.16 372.313 473.192 375.657 465.682 378.809C456.36 382.721 447.742 386.337 443.569 384.985C443.127 384.841 442.661 384.685 442.175 384.523C434.849 382.072 423.136 378.153 423.136 393.969C423.136 394.965 423.182 396.04 423.279 397.198ZM557.771 372.145C554.518 371.003 550.759 380.541 550.759 384.78C550.759 385.074 550.777 385.342 550.815 385.58C551.394 389.244 556.612 390.466 559.51 389.244C562.409 388.023 567.046 389.244 568.206 385.58C568.293 385.305 568.334 385.01 568.334 384.697C568.334 380.844 562.061 374.404 557.771 372.145ZM123.572 372.145C105.648 374.448 100.664 390.731 100.664 412.743C100.664 426.321 102.56 442.078 104.486 458.079C106.472 474.582 108.489 491.343 108.489 506.239C108.489 515.585 107.695 524.196 105.601 531.549C101.406 546.28 94.9967 562.122 88.599 577.936C77.7833 604.671 67 631.325 67 652.399C67 660.199 68.4776 667.235 71.9781 673.228C76.4831 680.94 80.5095 689.444 84.3478 697.551C96.3148 722.827 106.454 744.242 123.572 725.747C146.18 701.319 149.079 661.014 168.789 656.129C182.612 652.702 193.299 654.082 202.05 655.212C205.776 655.693 209.15 656.129 212.267 656.129C221.328 656.129 247.873 624.816 247.873 571.788C247.873 563.748 247.263 555.21 245.89 546.205C235.455 477.809 176.905 379.473 123.572 372.145ZM709.648 405.42C709.865 407.219 710.076 408.972 710.233 410.633C711.122 416.74 727.045 414.297 731.103 419.183C732.222 420.53 732.636 422.249 732.636 424.186C732.636 426.931 731.805 430.114 730.974 433.297C730.266 436.011 729.557 438.725 729.364 441.168C729.35 441.345 729.343 441.517 729.343 441.684C729.343 448.375 740.505 445.905 745.595 439.946C750.813 433.839 756.03 424.068 761.827 414.297C763.119 412.12 763.691 409.089 763.691 405.652C763.691 393.665 756.733 376.744 749.074 373.897C740.089 370.556 731.104 373.307 720.363 376.595C719.322 376.914 718.265 377.237 717.19 377.561C710.38 379.611 708.649 385.895 708.649 393.172C708.649 397.135 709.162 401.392 709.648 405.42ZM294.683 373.992C284.09 368.413 258.03 402.475 258.03 411.194C258.03 412.018 258.263 412.615 258.763 412.932C264.56 416.596 311.976 413.076 313.715 409.412C313.81 409.213 313.855 408.942 313.855 408.607C313.855 402.769 300.165 377.457 294.683 373.992ZM949.072 374.746C905.395 384.184 889.303 457.877 889.303 498.111C889.303 499.529 889.323 500.905 889.363 502.236C890.522 541.32 892.841 580.404 913.71 569.411C934.579 558.419 949.652 562.083 956.608 569.411C957.846 570.716 959.121 572.407 960.423 574.134C966.435 582.109 973.022 590.847 979.217 565.747C983.189 549.653 987 512.862 987 479.337C987 449.257 983.932 421.806 975.159 414.297C966.661 407.024 964.976 402.728 964.976 399.151C964.976 397.978 965.157 396.882 965.339 395.783C965.521 394.68 965.704 393.575 965.704 392.386C965.704 390.491 965.239 388.384 963.565 385.738C958 376.945 951.584 374.746 949.072 374.746ZM615.742 376.435C596.032 373.992 593.133 381.321 590.235 393.534C589.939 395.137 589.8 396.707 589.8 398.244C589.8 413.342 603.179 425.265 612.49 433.562C615.236 436.009 617.629 438.141 619.22 439.946C623.38 444.666 624.36 442.314 626.062 438.232C627.442 434.92 629.298 430.468 633.712 427.732C635.609 426.557 638.044 425.2 640.709 423.715C650.84 418.069 664.309 410.562 664.309 404.066C664.309 403.393 664.164 402.732 663.857 402.084C659.799 393.534 635.452 378.878 615.742 376.435ZM332.627 392.662C332.627 400.932 336.198 411.596 343.86 422.847C347.531 424.883 355.57 436.282 358.352 465.595C358.87 471.046 359.067 476.47 359.067 481.835C359.067 490.637 358.537 499.279 358.026 507.619C357.55 515.398 357.089 522.914 357.089 530.053C357.089 541.957 358.37 552.812 362.99 562.083C369.428 575.001 374.245 555.812 380.183 532.152C385.475 511.071 391.657 486.441 400.671 477.809C408.177 470.62 410.775 463.432 410.775 455.431C410.775 447.949 408.502 439.756 405.849 430.189C404.109 423.917 402.205 417.053 400.671 409.412C394.294 377.656 378.642 384.985 354.874 377.656C340.626 373.263 332.627 380.282 332.627 392.662ZM522.409 377.656C516.511 374.55 505.612 394.271 505.612 412.254C505.612 415.481 505.963 418.652 506.757 421.626C511.974 441.168 514.873 446.053 520.09 444.832C525.117 443.655 532.296 433.409 532.296 423.924C532.296 423.563 532.285 423.204 532.264 422.847C531.684 413.076 531.684 377.656 522.409 377.656ZM684.147 377.561C680.672 377.561 679.263 385.206 679.263 392.757C679.263 399.062 680.245 405.302 681.828 406.969C684.129 409.393 689.472 398.951 689.472 389.481C689.472 384.634 688.072 380.042 684.147 377.561ZM534.253 547.666C534.253 555.275 534.541 563.345 535.163 571.854C539.22 588.953 550.815 595.06 559.51 604.831C566.574 612.768 567.899 607.81 572.498 590.613C573.561 586.639 574.798 582.012 576.322 576.74C584.438 548.648 590.235 554.755 607.626 529.106C614.832 518.478 617.858 506.801 617.858 495.118C617.858 478.608 611.815 462.086 602.988 448.496C600.177 444.169 597.589 439.841 595.109 435.696C584.29 417.612 575.545 402.995 559.51 406.969C539.8 411.855 544.438 477.809 539.8 496.129C536.405 509.541 534.253 526.88 534.253 547.666ZM696.9 414.297C693.375 416.95 686.349 418.681 679.814 420.291C672.218 422.162 665.285 423.87 665.285 426.673C665.285 427.01 665.385 427.362 665.596 427.732C669.074 433.839 694.002 446.053 697.48 439.946C697.721 439.524 697.978 439.084 698.245 438.627C700.278 435.15 702.865 430.726 702.865 425.891C702.865 422.187 701.347 418.242 696.9 414.297ZM769.364 499.793C771.682 487.58 774.001 482.694 775.16 472.923C775.673 468.6 777.662 462.365 779.619 456.226C781.81 449.354 783.962 442.603 783.962 438.794C783.962 438.316 783.928 437.884 783.856 437.503C782.697 431.397 774.581 424.068 769.364 424.068C764.146 424.068 757.769 442.389 749.074 449.717C740.378 457.045 731.683 464.374 727.045 464.374C725.841 464.374 725.34 465.774 725.34 467.847C725.34 473.757 729.409 485.137 732.842 485.137C737.48 485.137 743.277 487.58 750.813 493.686C758.349 499.793 768.083 505.9 769.364 499.793ZM719.509 427.732C714.179 426.797 710.21 431.597 710.21 438.837C710.21 441.046 710.58 443.483 711.393 446.053C714.871 457.045 717.19 459.488 718.929 455.824C720.02 453.525 721.567 444.017 721.567 436.647C721.567 432.268 721.021 428.643 719.509 427.732ZM305.02 428.954C271.147 424.693 250.942 473.382 250.942 507.779C250.942 512.823 251.377 517.56 252.266 521.778C259.223 554.755 271.976 604.831 318.353 571.854C338.527 557.509 347.731 526.985 347.731 497.777C347.731 459.841 332.204 424.123 305.02 428.954ZM630.365 477.518C630.365 491.797 632.039 507.398 633.712 514.45C637.77 525.442 644.147 533.992 649.364 535.213C654.582 536.434 661.538 565.747 665.596 576.74C669.654 587.732 666.176 624.373 672.553 640.251C678.929 656.128 685.886 643.915 690.523 630.48C691.716 627.025 692.219 623.652 692.219 620.068C692.219 613.637 690.6 606.53 688.444 597.066C687.13 591.294 685.615 584.646 684.147 576.74C682.012 565.247 680.945 557.844 680.945 551.016C680.945 541.495 683.02 533.095 687.169 516.294L687.625 514.45C692.748 493.692 693.853 486.481 693.853 479.387C693.853 477.18 693.746 474.984 693.62 472.394C693.555 471.064 693.485 469.63 693.422 468.038C692.842 453.381 668.495 444.832 656.321 441.168C644.147 437.503 639.51 439.946 633.712 452.16C631.262 457.322 630.365 467.066 630.365 477.518ZM415.164 514.45C399.135 535.308 398.825 540.011 398.021 552.208C397.836 555.009 397.626 558.205 397.193 562.083C396.981 563.975 396.881 565.664 396.881 567.19C396.881 575.395 399.786 578.918 404.031 584.067C407.666 588.476 412.284 594.077 416.903 604.831C427.917 630.48 427.337 630.48 429.077 656.129C430.816 681.777 444.149 678.113 458.641 656.129C461.93 651.141 465.397 647.787 468.752 644.543C478.923 634.705 488.064 625.864 488.064 575.495C488.064 569.247 487.923 562.361 487.627 554.755C484.148 465.595 486.467 443.61 474.293 441.168C462.12 438.725 435.453 455.824 429.077 477.809C423.975 495.396 417.676 509.564 415.164 514.45ZM793.711 448.496C789.653 447.274 786.755 452.16 786.755 458.267C786.755 461.524 787.334 467.305 789.653 464.374C792.552 460.709 795.45 458.267 797.769 458.267C798.403 458.267 798.69 457.628 798.69 456.675C798.69 454.14 796.66 449.383 793.711 448.496ZM507.916 571.854C513.714 581.625 522.409 562.083 522.409 540.098C522.863 538.903 523.033 537.089 523.033 534.902C523.033 531.702 522.67 527.702 522.304 523.664C521.931 519.549 521.554 515.396 521.554 512.01C521.554 509.387 521.78 507.226 522.409 505.9C524.441 501.619 526.671 490.666 526.671 480.838C526.671 473.845 525.542 467.42 522.409 464.374C514.873 457.045 501.54 477.809 496.322 490.022C494.484 494.326 493.869 497.416 493.869 500.362C493.869 502.733 494.267 505.01 494.747 507.75C495.362 511.269 496.111 515.552 496.322 521.778C496.902 538.877 502.119 562.083 507.916 571.854ZM707.915 468.038C705.016 472.923 698.639 497.351 696.9 505.9C696.786 506.464 696.731 506.948 696.731 507.36C696.731 512.13 704.001 507.198 708.723 503.994C709.776 503.28 710.702 502.652 711.393 502.236C715.06 500.029 719.673 494.83 719.673 487.54C719.673 486.762 719.621 485.961 719.509 485.137C718.349 476.587 710.813 463.152 707.915 468.038ZM806.465 476.587C800.088 470.48 783.856 475.366 782.697 494.908C781.537 514.45 779.798 532.77 777.479 549.869C776.17 559.526 775.045 568.404 775.045 574.743C775.045 579.628 775.713 583.005 777.479 584.068C781.537 586.51 785.595 591.396 789.653 601.167C790.287 602.693 790.921 604.368 791.563 606.066C795.035 615.242 798.765 625.099 804.146 615.823C810.197 605.392 815.204 589.462 815.204 578.469C815.204 577.878 815.19 577.301 815.16 576.74C815.127 576.109 815.111 575.446 815.111 574.755C815.111 563.401 819.451 544.423 823.276 535.213C825.967 528.734 829.932 519.032 829.932 510.738C829.932 506.524 828.909 502.674 826.175 499.793C818.059 491.244 811.102 482.694 806.465 476.587ZM703.843 575.288C705.041 580.787 706.573 587.819 707.915 598.724C708.688 609.309 714.639 632.434 732.262 640.251C747.496 647.008 749.423 633.322 751.271 620.197C752.095 614.342 752.904 608.599 754.871 604.831C761.248 592.617 769.364 544.984 769.364 529.106C769.363 513.228 733.422 502.236 728.204 502.236C722.987 502.236 711.973 514.45 705.016 541.32C702.669 550.386 701.774 556.115 701.774 560.994C701.774 565.793 702.64 569.768 703.843 575.288ZM564.746 716.913C564.963 720.029 565.192 723.33 565.307 726.968C566.363 746.51 580.38 758.724 593.133 763.609C600.464 766.417 604.347 757.118 608.636 746.848C611.809 739.251 615.203 731.122 620.379 726.968C632.553 717.197 638.35 689.105 646.466 661.014C648.529 653.872 649.356 644.915 649.356 635.346C649.356 607.276 642.241 573.945 638.35 565.747C635.177 559.061 627.929 560.057 620.78 561.038C616.176 561.671 611.612 562.297 608.205 560.862C599.952 557.384 594.832 579.216 592.349 589.799C592.217 590.366 592.091 590.9 591.974 591.396C589.655 601.167 580.959 657.35 571.104 678.113C565.571 689.77 564.241 697.962 564.241 706.148C564.241 709.647 564.484 713.146 564.746 716.913ZM383.28 618.266C377.659 616.371 370.393 608.782 362.927 600.983C351.142 588.674 338.858 575.843 331.761 584.068C329.078 587.176 328.006 590.807 328.006 594.991C328.006 601.755 330.809 609.965 334.151 619.749C337.676 630.073 341.801 642.15 343.86 656.129C347.549 681.174 351.238 709.273 351.238 735.243C351.238 746.001 350.605 756.393 349.077 766.052C348.334 770.752 347.979 775.03 347.979 778.9C347.979 802.188 360.83 810.72 379.222 807.578C396.917 804.555 408.694 801.533 408.694 775.194C408.694 769.606 408.164 762.969 407.048 755.059C405.41 743.455 403.696 734.347 402.289 726.868C400.491 717.312 399.192 710.414 399.192 704.361C399.192 696.702 401.272 690.397 407.048 681.777C410.536 676.571 412.057 668.754 412.057 660.27C412.057 634.921 398.482 603.624 383.28 618.266ZM472.496 728.917C477.593 742.367 484.349 760.197 491.105 789.258C500.31 810.98 503.669 807.078 508.608 801.34C511.445 798.045 514.803 794.143 520.09 794.143C527.183 794.143 528.861 789.755 528.861 782.268C528.861 779.302 528.597 775.85 528.303 771.992C527.931 767.105 527.508 761.566 527.508 755.539C527.508 753.79 527.544 752.001 527.626 750.174C528.786 724.525 536.322 709.869 547.336 692.77C558.351 675.67 558.931 656.129 559.51 637.808C559.52 637.501 559.525 637.194 559.525 636.889C559.525 618.997 542.928 604.667 522.409 595.06C506.606 587.661 506.426 601.273 506.263 613.621C506.211 617.58 506.16 621.408 505.598 624.373C503.279 636.587 491.105 647.579 474.293 661.014C466.755 667.039 463.996 669.134 463.193 671.814C462.992 672.486 462.914 673.193 462.914 674.009C462.914 676.893 463.894 681.125 463.894 689.84C463.894 690.764 463.883 691.74 463.859 692.77C463.847 693.263 463.841 693.752 463.841 694.236C463.841 706.076 467.309 715.229 472.496 728.917ZM858.626 809.756C858.626 810.253 858.63 810.748 858.638 811.242C881.7 855.783 896.621 839.543 912.3 822.479C924.997 808.66 938.191 794.3 956.608 811.242C978.132 831.042 983.961 783.372 983.961 731.113C983.961 683.44 979.11 631.947 976.898 624.373C972.26 608.495 947.913 584.068 917.768 598.724C887.623 613.381 894 687.884 885.884 712.311C883.984 718.031 881.448 724.62 878.686 731.797C869.822 754.834 858.626 783.929 858.626 809.756ZM271.509 602.938C252.958 618.816 245.89 696.434 212.267 697.655C191.833 697.655 181.255 724.032 181.255 757.385C181.255 773.235 183.643 790.66 188.499 807.578C203.571 860.097 292.266 832.006 318.353 794.143C330.678 776.254 336.015 748.277 336.015 720.002C336.015 688.433 329.362 656.493 318.353 637.808C317.24 635.92 316.166 634.089 315.126 632.316C296.66 600.843 289.07 587.906 271.509 602.938ZM826.175 601.167C819.798 607.274 815.16 617.045 815.16 640.251C814.933 643.443 814.824 646.156 814.824 648.484C814.824 659.386 817.202 661.86 820.896 665.703C822.449 667.319 824.235 669.177 826.175 672.006C828.037 674.723 828.802 678.93 828.802 683.855C828.802 698.862 821.7 720.531 816.899 726.968C816.377 727.668 815.792 728.409 815.168 729.202C810.502 735.119 803.591 743.882 803.591 759.685C803.591 767.601 805.325 777.283 809.943 789.258C825.015 828.342 844.725 779.487 846.464 773.38C848.203 767.273 865.594 726.968 873.131 702.541C875.211 695.798 876.098 688.963 876.098 682.137C876.098 664.234 869.991 646.396 863.276 630.48C854 608.495 832.551 595.06 826.175 601.167ZM754.683 669.263C754.744 670.142 754.806 671.055 754.871 672.006C755.446 680.556 780.378 684.22 785.015 697.655C785.374 698.695 785.726 699.742 786.076 700.782C790.247 713.19 794.118 724.707 805.885 712.311C808.244 709.827 809.234 705.211 809.234 699.26C809.234 673.038 789.999 620.893 783.856 610.938C777.432 600.526 771.429 608.753 767.284 614.433C766.566 615.417 765.904 616.324 765.305 617.045C761.248 621.93 760.088 630.48 756.61 640.251C754.642 645.778 753.973 649.743 753.973 655.239C753.973 658.918 754.273 663.283 754.683 669.263ZM717.77 661.014C713.709 666.458 711.529 670.417 711.529 676.044C711.529 679.253 712.238 683.005 713.712 687.884C716.123 695.866 717.51 709.021 717.51 720.178C717.51 727.8 716.863 734.49 715.451 737.96C713.933 741.692 713.077 748.216 713.077 754.689C713.077 763.045 714.503 771.315 717.77 773.38C718.235 773.674 718.752 774.007 719.314 774.369C725.765 778.525 738.177 786.521 746.175 783.151C754.871 779.487 776.32 769.716 778.059 750.174C778.357 746.821 778.502 743.181 778.502 739.431C778.502 721.328 775.126 700.69 769.364 697.655C762.407 693.991 747.334 687.884 742.697 687.884C738.059 687.884 728.204 661.014 724.146 661.014L717.77 661.014ZM665.596 687.884C652.263 711.09 649.364 718.418 649.364 730.632C649.364 742.846 649.364 750.174 658.64 750.174C663.063 750.174 667.222 751.84 671.243 753.451C675.655 755.219 679.901 756.92 684.147 756.281C691.864 755.119 702.202 726.349 702.202 714.075C702.202 713.441 702.175 712.851 702.118 712.311C700.958 701.319 684.147 668.342 677.19 669.564C671.625 670.541 667.142 682.184 665.596 687.884ZM151.825 707.004C151.128 708.719 150.407 710.491 149.659 712.312C144.106 727.405 133.807 761.945 133.807 787.145C133.807 789.133 133.871 791.064 134.007 792.922C136.325 824.678 157.774 825.899 171.108 825.899C174.453 825.899 175.718 822.747 175.718 817.831C175.718 808.902 171.544 794.154 168.079 781.913C165.848 774.033 163.912 767.192 163.571 763.609C163.455 762.381 163.397 761.105 163.397 759.766C163.397 747.786 168.04 730.859 176.905 700.098C179.708 690.371 180.822 684.794 180.822 681.765C180.822 677.176 178.263 678.435 175.14 679.973C173.078 680.988 170.769 682.125 168.789 681.777C162.524 680.677 158.139 691.466 151.825 707.004ZM429.077 687.884C422.568 693.978 418.541 710.524 418.541 725.966C418.541 735.284 420.007 744.199 423.279 750.174C425.537 754.297 427.678 759.078 429.711 763.62C435.509 776.572 440.437 787.578 444.729 775.823C445.56 773.545 446.487 771.117 447.449 768.596C451.922 756.88 457.161 743.155 457.161 733.205C457.161 730.367 456.735 727.836 455.743 725.747C450.526 714.754 442.989 687.884 429.077 687.884ZM547.336 717.197C545.314 718.902 542.727 727.148 542.727 732.807C542.727 735.257 543.212 737.222 544.438 737.96C545.145 738.386 545.888 738.886 546.636 739.39C550.174 741.773 553.814 744.224 554.293 739.182C554.336 738.731 554.356 738.228 554.356 737.681C554.356 730.819 551.095 717.197 547.336 717.197ZM789.653 742.846C787.132 746.829 785.639 751.534 785.639 755.98C785.639 759.714 786.692 763.264 789.073 766.052C794.291 772.159 797.769 746.51 797.769 742.846C797.769 739.182 793.711 740.403 789.653 742.846ZM630.234 759.945C624.688 762.642 619.141 770.631 619.141 777.096C619.141 779.415 619.855 781.539 621.539 783.151C627.915 789.258 643.567 795.365 646.466 789.258C646.93 788.279 647.157 786.485 647.157 784.222C647.157 772.364 640.944 747.637 630.234 759.945ZM549.655 759.945C542.699 755.059 541.539 772.159 541.539 783.151C541.539 794.143 545.597 805.136 549.655 807.578C551.395 808.626 553.029 807.428 554.967 806.006C557.549 804.112 560.671 801.821 565.307 803.914C573.423 807.578 581.539 810.021 583.858 810.021C585.73 810.021 589.869 806.837 589.869 799.825C589.869 798.152 589.634 796.261 589.075 794.143C586.177 783.151 581.539 772.159 573.423 772.159C570.153 772.159 567.824 773.547 565.981 774.645C563.25 776.272 561.587 777.264 559.51 772.159C556.728 765.319 551.781 761.166 549.655 759.945ZM110.818 761.166C102.455 767.04 92.6016 783.899 92.6015 790.36C92.6015 791.96 93.2058 792.922 94.5865 792.922C96.8547 792.922 99.2461 794.48 101.56 795.987C106.342 799.103 110.793 802.003 113.137 790.479C114.72 782.698 115.702 775.423 115.702 770.035C115.702 763.582 114.293 759.835 110.818 761.166ZM466.757 766.052C465.459 773.712 462.066 778.431 459.445 782.076C457.549 784.713 456.057 786.787 456.057 789.007C456.057 790.566 456.793 792.196 458.641 794.143C466.757 802.693 473.714 814.907 476.033 814.907C477.988 814.907 480.354 810.566 480.354 800.421C480.354 798.533 480.272 796.443 480.091 794.143C478.931 779.487 476.033 773.38 472.554 772.159C471.08 771.641 470.751 769.368 470.465 767.385C470.075 764.691 469.763 762.533 466.757 766.052ZM694.002 772.159C685.886 772.159 667.915 794.143 661.538 811.242C661.122 813.546 660.93 815.475 660.93 817.083C660.93 826.633 667.698 824.895 674.472 823.155C679.265 821.924 684.061 820.693 686.466 823.456C692.842 830.784 728.204 817.349 732.842 803.914C733.512 801.972 733.807 800.515 733.807 799.444C733.807 795.195 729.175 796.998 724.922 798.653C722.825 799.47 720.819 800.25 719.509 800.25C714.871 800.25 702.118 772.159 694.002 772.159ZM788.494 784.372C783.276 779.487 778.059 783.151 773.421 789.258C771.992 791.035 752.552 800.25 746.755 806.357C746.067 807.082 745.755 807.686 745.755 808.194C745.755 810.284 751.037 810.753 757.226 811.303C762.22 811.747 767.804 812.243 771.682 813.685C781.399 817.298 801.259 814.974 801.259 810.225C801.259 810.158 801.255 810.09 801.247 810.021C800.667 805.135 793.711 789.258 788.494 784.372ZM422.12 789.258C420.062 794.316 418.613 798.947 418.613 802.138C418.613 804.341 419.303 805.858 420.961 806.357C421.52 806.525 422.047 806.694 422.543 806.853C425.647 807.845 427.577 808.463 429.077 806.357C429.487 805.78 429.704 803.91 429.704 801.535C429.704 793.846 427.434 780.86 422.12 789.258ZM612.843 821.013C612.919 822.763 612.965 824.326 613.005 825.714C613.278 834.981 613.32 836.414 620.379 833.227C624.812 831.226 626.651 824.851 626.651 819.279C626.651 814.65 625.382 810.575 623.278 810.021C618.64 808.8 614.582 808.8 612.843 821.013Z" fill="url(#paint_linear_4_41_0)" fill-opacity="1.000000" fill-rule="evenodd"/>
	</g>
</svg>
