<svg width="793.999939" height="218.000000" viewBox="0 0 794 218" fill="none" xmlns="http://www.w3.org/2000/svg" xmlns:xlink="http://www.w3.org/1999/xlink">
	<desc>
			Created with Pixso.
	</desc>
	<defs>
		<filter id="filter_4_30_dd" x="0.000000" y="0.000000" width="793.999939" height="218.000000" filterUnits="userSpaceOnUse" color-interpolation-filters="sRGB">
			<feFlood flood-opacity="0" result="BackgroundImageFix"/>
			<feBlend mode="normal" in="SourceGraphic" in2="BackgroundImageFix" result="shape"/>
			<feColorMatrix in="SourceAlpha" type="matrix" values="0 0 0 0 0 0 0 0 0 0 0 0 0 0 0 0 0 0 127 0" result="hardAlpha"/>
			<feOffset dx="0" dy="4"/>
			<feGaussianBlur stdDeviation="0"/>
			<feComposite in2="hardAlpha" operator="arithmetic" k2="-1" k3="1"/>
			<feColorMatrix type="matrix" values="0 0 0 0 0.52157 0 0 0 0 1 0 0 0 0 0.35294 0 0 0 1 0"/>
			<feBlend mode="normal" in2="shape" result="effect_innerShadow_1"/>
		</filter>
		<radialGradient id="paint_radial_4_30_0" cx="0.000000" cy="0.000000" r="1.000000" gradientUnits="userSpaceOnUse" gradientTransform="translate(397 109) rotate(90) scale(109 397)">
			<stop offset="0.541667" stop-color="#FA00FF"/>
			<stop offset="1.000000" stop-color="#FA00FF" stop-opacity="0.000000"/>
		</radialGradient>
	</defs>
	<g filter="url(#filter_4_30_dd)">
		<path id="Vector 1" d="M92.2704 53.6897C91.7701 40.3331 85.7664 18.4283 81.7639 8.81152C81.1736 7.13849 80.8644 5.65948 80.8644 4.41391C80.8644 -1.50015 87.834 -2.15186 104.778 6.67447C119.677 14.4354 124.282 14.8683 129.329 15.3428C131.231 15.5216 133.196 15.7064 135.797 16.2912C145.303 18.4283 144.803 22.1681 152.308 27.5108C156.369 30.402 157.646 34.7015 157.646 38.885C157.646 42.432 156.728 45.8957 155.81 48.347C153.809 53.6897 141.301 53.6897 135.797 57.4295C130.294 61.1694 128.793 69.1833 128.793 75.5945C128.793 82.0056 132.796 87.3483 135.797 93.2252C136.208 94.0284 136.394 94.7318 136.394 95.3518C136.394 98.4612 131.716 99.4721 127.194 100.449C126.021 100.703 124.858 100.954 123.79 101.239C117.786 102.842 106.779 113.527 98.2741 119.938C89.7689 126.35 87.2673 123.678 83.2648 115.664C81.7446 112.62 81.1626 110.887 81.1626 109.585C81.1626 108.355 81.6824 107.511 82.4211 106.311C82.9586 105.438 83.612 104.377 84.2654 102.842C86.6677 97.1982 92.2999 69.3823 92.2999 55.355C92.2999 54.7755 92.2902 54.2195 92.2704 53.6897ZM67.7552 4.00317C73.7436 10.398 76.8649 15.0919 76.8649 17.2704C76.8649 17.8221 76.6648 18.2124 76.2604 18.4283C74.2592 19.4968 58.7496 7.20877 57.2487 5.07172C57.1157 4.88245 57.0534 4.689 57.0534 4.49619C57.0534 2.51178 63.6512 0.594513 67.7552 4.00317ZM32.7334 4.00317C70.4291 8.13177 84.3167 50.1468 84.3167 68.4118C84.3167 69.0556 84.2994 69.6698 84.2654 70.2518C83.2648 87.3483 81.2635 104.445 63.2524 99.6364C45.2411 94.828 32.2331 96.4308 26.2294 99.6364C25.1608 100.207 24.0606 100.947 22.9371 101.702C17.7482 105.191 12.0637 109.013 6.71729 98.0336C3.28912 90.9936 0 74.8998 0 60.235C0 47.077 2.64795 35.0695 10.2194 31.7849C17.5533 28.6033 19.008 24.5248 19.008 20.5766C19.008 19.2235 18.8372 17.8857 18.6735 16.6046C18.5232 15.4275 18.379 14.2982 18.379 13.2488C18.379 11.4976 18.7806 9.96887 20.2256 8.81152C25.0286 4.96484 30.5654 4.00317 32.7334 4.00317ZM184.433 20.5074C184.433 21.1322 184.394 21.8569 184.328 22.7024C184.533 23.3065 184.698 24.1273 184.698 25.0114C184.698 26.9943 183.87 29.2953 180.825 30.1821C175.322 31.7849 172.32 36.059 167.817 40.3331C164.187 43.7792 163.158 39.9317 163.158 36.3514C163.158 35.4912 163.218 34.6464 163.315 33.922C163.352 33.6446 163.37 33.3466 163.37 33.03C163.37 29.0785 160.59 22.2269 157.811 16.2912C157.49 15.6048 157.34 15.0347 157.34 14.5659C157.34 11.3857 164.214 12.867 170.866 14.3007C172.391 14.6295 173.905 14.9557 175.322 15.2227C176.163 15.3813 176.931 15.5189 177.631 15.6444C183.077 16.6205 184.433 16.8636 184.433 20.5074ZM320.412 15.2227C337.423 14.1542 339.924 17.3598 342.426 22.7024C342.681 23.4034 342.801 24.0903 342.801 24.7628C342.801 31.3671 331.254 36.5822 323.218 40.2119C320.848 41.2823 318.784 42.2148 317.41 43.0044C313.82 45.0689 312.974 44.04 311.505 42.2545C310.314 40.8056 308.713 38.8585 304.902 37.6618C303.265 37.1476 301.164 36.5541 298.864 35.9044C290.121 33.4346 278.496 30.1509 278.496 27.3093C278.496 27.0151 278.621 26.7256 278.886 26.4423C282.389 22.7025 303.402 16.2912 320.412 15.2227ZM564.752 22.3207C564.752 25.9386 561.671 30.6031 555.058 35.5247C551.889 36.4152 544.952 41.4016 542.55 54.2239C542.104 56.6085 541.934 58.9812 541.934 61.328C541.934 65.1779 542.391 68.9583 542.832 72.6067C543.243 76.0092 543.64 79.2971 543.64 82.4199C543.64 87.6271 542.535 92.3752 538.548 96.4308C532.992 102.081 528.835 93.6875 523.709 83.3379C519.142 74.1165 513.807 63.3426 506.027 59.5666C499.549 56.4221 497.307 53.2776 497.307 49.7781C497.307 46.505 499.269 42.9212 501.559 38.7364C503.06 35.9926 504.703 32.9904 506.027 29.6478C511.531 15.757 525.039 18.9626 545.552 15.757C557.849 13.8353 564.752 16.9056 564.752 22.3207ZM486.515 24.3052C486.493 24.6167 486.482 24.9379 486.482 25.2672C486.482 27.3153 486.883 29.6761 487.272 31.9668C487.639 34.1254 487.995 36.2216 487.995 37.9352C487.995 40.6291 487.115 42.3775 484.014 41.9359C476.509 40.8674 466.503 36.5933 460.999 33.3877C455.496 30.1821 441.487 29.1135 433.482 28.5793C428.795 28.2664 424.794 25.0225 424.794 22.602C424.794 20.8889 426.798 19.5882 431.981 20.0311C444.489 21.0996 462.5 20.0311 469.004 18.9626C469.386 18.8999 469.789 18.8316 470.208 18.7606C476.53 17.6885 486.639 15.9744 486.639 22.8924C486.639 23.3283 486.599 23.7985 486.515 24.3052ZM634.107 23.2367C640.067 25.8404 642.213 30.7938 642.213 34.9585C642.213 38.485 640.674 41.446 638.61 41.9359C634.107 43.0045 629.604 38.196 627.603 35.5247C625.602 32.8534 621.599 30.1821 616.096 28.045C613.136 26.8958 611.189 24.2012 611.189 21.9559C611.189 20.0262 612.627 18.4283 616.096 18.4283C622.1 18.4283 630.605 21.6339 634.107 23.2367ZM403.964 20.0311C408.837 18.7302 415.688 23.7646 415.688 30.2779C415.688 31.7894 415.319 33.3804 414.471 34.9904C409.968 43.5387 407.466 45.6757 402.963 45.1414C398.625 44.6267 392.43 40.1448 392.43 35.9956C392.43 35.8381 392.439 35.681 392.457 35.5247C392.957 31.2506 395.959 20.0311 403.964 20.0311ZM239.745 27.194C239.452 27.9844 239.091 28.9568 238.861 30.1821C238.095 32.8534 224.352 31.7849 220.85 33.922C219.884 34.5114 219.527 35.2633 219.527 36.1106C219.527 37.3113 220.244 38.7035 220.961 40.0956C221.573 41.2829 222.184 42.4702 222.351 43.5387C222.363 43.6164 222.369 43.6917 222.369 43.7644C222.369 46.6915 212.736 45.6109 208.342 43.0044C203.84 40.3331 199.337 36.059 194.334 31.7849C193.219 30.8324 192.725 29.8534 192.725 28.8893C192.725 25.5269 198.731 22.3452 205.341 21.0996C213.095 19.6384 220.849 20.8416 230.12 22.28C231.018 22.4193 231.93 22.5609 232.858 22.7024C238.735 23.599 240.229 24.1612 240.229 25.4179C240.229 25.8925 240.016 26.466 239.745 27.194ZM581.074 21.0996C589.114 18.9532 596.508 23.7054 596.508 26.4873C596.508 27.1676 596.066 27.7301 595.083 28.045C590.08 29.6478 582.575 31.2506 581.074 29.6478C580.153 28.6642 578.478 26.2719 578.478 24.2C578.478 22.8959 579.141 21.7188 581.074 21.0996ZM370.443 22.7024C373.25 22.2028 376.495 26.3752 376.495 28.2293C376.495 28.3579 376.479 28.4753 376.447 28.5793C375.947 30.1821 371.444 30.7163 368.942 30.1821C366.441 29.6478 362.438 30.1821 361.438 28.5793C361.362 28.459 361.327 28.3297 361.327 28.1929C361.327 26.5074 366.741 23.6907 370.443 22.7024ZM261.375 22.7024C264.375 22.7024 265.591 23.9717 265.591 25.3862C265.591 26.5674 264.743 27.8499 263.377 28.5793C261.391 29.6394 256.779 28.1285 256.779 26.0562C256.779 24.9955 257.988 23.7877 261.375 22.7024ZM689.141 29.6478C730.167 32.3192 748.678 61.7036 760.686 83.0742C764.306 89.5182 769.838 96.4479 775.359 103.365C784.693 115.06 794 126.719 794 135.938C794 139.35 792.725 142.428 789.704 145.049C785.816 148.422 782.341 152.142 779.028 155.688C768.7 166.745 759.95 176.112 745.176 168.022C725.664 157.337 723.162 139.706 706.152 137.569C694.221 136.07 684.998 136.674 677.446 137.168C674.231 137.378 671.318 137.569 668.628 137.569C660.808 137.569 637.898 123.872 637.898 100.676C637.898 97.1591 638.425 93.4241 639.61 89.4854C648.616 59.5666 643.113 32.8534 689.141 29.6478ZM250.369 31.7849C254.955 33.534 256.967 35.5123 256.967 37.4196C256.967 38.4251 256.408 39.4109 255.372 40.3331C254.391 41.2058 253.784 42.0786 253.307 42.765C252.323 44.1796 251.889 44.803 249.868 43.0044C249.661 42.8196 249.438 42.6271 249.208 42.4274C247.454 40.9065 245.221 38.9712 245.221 36.856C245.221 35.236 246.531 33.5104 250.369 31.7849ZM187.83 69.1833C185.828 63.8407 183.827 61.7036 182.827 57.4295C182.384 55.5385 180.668 52.8109 178.979 50.1258C177.088 47.1196 175.23 44.1666 175.23 42.5005C175.23 42.2912 175.26 42.1021 175.322 41.9359C176.323 39.2646 183.327 36.059 187.83 36.059C192.333 36.059 197.836 44.0729 205.341 47.2785C212.845 50.4841 220.35 53.6897 224.352 53.6897C225.392 53.6897 225.824 54.3022 225.824 55.209C225.824 57.7944 222.312 62.7722 219.349 62.7722C215.347 62.7722 210.344 63.8407 203.84 66.512C197.336 69.1833 188.935 71.8546 187.83 69.1833ZM230.857 37.6618C235.456 37.2524 238.882 39.3522 238.882 42.5192C238.882 43.4857 238.563 44.5515 237.861 45.6757C234.859 50.4841 232.858 51.5526 231.357 49.9498C230.415 48.9444 229.08 44.7853 229.08 41.5611C229.08 39.6456 229.551 38.06 230.857 37.6618ZM588.579 38.196C617.812 36.3323 635.25 57.6301 635.25 72.6764C635.25 74.883 634.875 76.9552 634.107 78.8001C628.103 93.2252 617.096 115.13 577.072 100.705C559.66 94.4298 551.717 81.0778 551.717 68.3012C551.717 51.7068 565.117 36.0831 588.579 38.196ZM390.74 90.1245C390.74 93.4526 390.492 96.9828 389.955 100.705C386.453 108.185 376.447 110.856 368.942 115.13C362.846 118.602 361.702 116.433 357.733 108.911C356.816 107.172 355.748 105.148 354.433 102.842C347.429 90.5539 342.426 93.2252 327.416 82.0056C321.197 77.3565 318.586 72.2487 318.586 67.1383C318.586 59.9161 323.801 52.6889 331.419 46.7443C341.742 38.6883 349.545 40.054 360.828 42.0291C363.763 42.5428 366.932 43.0976 370.443 43.5387C382.366 45.0365 383.228 52.3084 384.056 59.2838C384.409 62.2607 384.756 65.1835 385.953 67.5805C388.883 73.4472 390.74 81.0317 390.74 90.1245ZM307.791 59.4396C307.791 65.6855 306.347 72.5099 304.902 75.5945C301.4 80.4029 295.897 84.1427 291.394 84.677C286.891 85.2112 280.888 98.0336 277.385 102.842C273.883 107.65 276.885 123.678 271.382 130.624C265.878 137.569 259.875 132.226 255.872 126.35C254.843 124.839 254.409 123.363 254.409 121.795C254.409 118.982 255.806 115.873 257.667 111.734C258.801 109.209 260.108 106.3 261.375 102.842C263.217 97.815 264.139 94.5763 264.139 91.5895C264.139 87.4251 262.348 83.7505 258.767 76.4013L258.374 75.5945C253.952 66.5146 252.999 63.3604 252.999 60.2572C252.999 59.2915 253.091 58.3309 253.2 57.1981C253.256 56.6163 253.316 55.9891 253.37 55.2925C253.871 48.8813 274.884 45.1414 285.39 43.5387C295.897 41.9359 299.899 43.0044 304.902 48.347C307.017 50.6051 307.791 54.8673 307.791 59.4396ZM493.52 75.5945C507.353 84.7186 507.621 86.776 508.314 92.1111C508.474 93.3363 508.656 94.7344 509.029 96.4308C509.212 97.2582 509.298 97.997 509.298 98.6649C509.298 102.254 506.791 103.795 503.128 106.047C499.99 107.976 496.004 110.426 492.019 115.13C482.513 126.35 483.013 126.35 481.512 137.569C480.011 148.789 468.504 147.186 455.996 137.569C453.159 135.387 450.166 133.92 447.271 132.501C438.493 128.198 430.603 124.331 430.603 102.297C430.603 99.5646 430.725 96.5524 430.981 93.2252C433.983 54.2239 431.981 44.6072 442.488 43.5387C452.994 42.4702 476.009 49.9498 481.512 59.5666C485.915 67.26 491.352 73.4574 493.52 75.5945ZM166.817 46.7443C170.319 46.21 172.82 48.347 172.82 51.0184C172.82 52.4431 172.32 54.9719 170.319 53.6897C167.817 52.0869 165.316 51.0184 163.315 51.0184C162.768 51.0184 162.52 50.739 162.52 50.3219C162.52 49.2133 164.272 47.1325 166.817 46.7443ZM240.863 55.2925C243.364 57.4295 248.868 68.1148 250.369 71.8546C250.468 72.1013 250.514 72.313 250.514 72.4932C250.514 74.5797 244.241 72.4225 240.165 71.0209C239.256 70.7086 238.457 70.4337 237.861 70.2518C234.696 69.2863 230.715 67.0121 230.715 63.8235C230.715 63.4833 230.76 63.1327 230.857 62.7722C231.857 59.0323 238.361 53.1554 240.863 55.2925ZM155.81 59.0323C161.313 56.361 175.322 58.498 176.323 67.0463C177.323 75.5945 178.824 83.6084 180.825 91.0881C181.956 95.3123 182.926 99.1956 182.926 101.968C182.926 104.105 182.35 105.582 180.825 106.048C177.323 107.116 173.821 109.253 170.319 113.527C169.772 114.195 169.225 114.927 168.671 115.67C165.674 119.684 162.455 123.996 157.811 119.938C152.589 115.375 148.267 108.407 148.267 103.598C148.267 103.34 148.28 103.087 148.305 102.842C148.334 102.566 148.348 102.276 148.348 101.974C148.348 97.007 144.602 88.7058 141.301 84.677C138.979 81.8428 135.556 77.5991 135.556 73.9709C135.556 72.1276 136.44 70.4432 138.799 69.1833C145.804 65.4435 151.807 61.7036 155.81 59.0323ZM413.47 100.705C408.467 104.979 400.962 96.4308 400.962 86.814C398.961 84.1427 394.358 78.159 391.957 75.5945C391.488 75.0937 391.275 74.4886 391.275 73.8118C391.275 70.1562 397.475 64.4084 402.963 61.7036C409.467 58.498 418.973 59.5666 423.476 64.9092C425.063 66.7916 425.593 68.1434 425.593 69.432C425.593 70.4691 425.25 71.4652 424.836 72.664C424.305 74.2032 423.658 76.0767 423.476 78.8001C422.976 86.2798 418.473 96.4308 413.47 100.705ZM244.377 102.207C243.343 104.613 242.021 107.689 240.863 112.459C240.196 117.089 235.059 127.204 219.85 130.624C206.702 133.579 205.039 127.593 203.445 121.851C202.733 119.29 202.035 116.778 200.338 115.13C194.834 109.787 187.83 88.9511 187.83 82.0056C187.83 75.0602 218.849 70.2518 223.352 70.2518C227.855 70.2518 237.361 75.5945 243.364 87.3483C245.39 91.3142 246.163 93.8203 246.163 95.9543C246.163 98.0535 245.415 99.7927 244.377 102.207ZM364.423 164.158C364.237 165.521 364.039 166.965 363.939 168.556C363.028 177.105 350.931 182.447 339.924 184.584C333.597 185.813 330.246 181.745 326.544 177.252C323.806 173.929 320.877 170.374 316.41 168.556C305.903 164.282 300.9 151.994 293.896 139.706C292.115 136.582 291.401 132.664 291.401 128.478C291.401 116.2 297.542 101.62 300.9 98.0336C303.639 95.109 309.894 95.5444 316.063 95.9738C320.038 96.2503 323.976 96.5244 326.916 95.8965C334.039 94.3752 338.458 103.925 340.6 108.554C340.715 108.802 340.823 109.036 340.925 109.253C342.926 113.527 350.431 138.103 358.936 147.186C363.711 152.285 364.859 155.868 364.859 159.449C364.859 160.98 364.649 162.51 364.423 164.158ZM444.039 169.409C439.64 175.292 433.81 183.092 427.979 195.804C420.034 205.306 417.136 203.599 412.873 201.089C410.425 199.647 407.527 197.941 402.963 197.941C396.842 197.941 395.394 196.021 395.394 192.746C395.394 191.449 395.621 189.939 395.875 188.251C396.197 186.114 396.561 183.691 396.561 181.054C396.561 180.289 396.531 179.506 396.459 178.707C395.459 167.488 388.955 161.077 379.449 153.597C369.943 146.117 369.443 137.569 368.942 129.555C368.934 129.421 368.93 129.287 368.93 129.153C368.93 121.327 383.253 115.058 400.962 110.856C414.601 107.619 414.756 113.574 414.897 118.975C414.942 120.707 414.985 122.381 415.471 123.678C417.472 129.021 427.979 133.829 442.488 139.706C449.632 142.6 451.803 143.421 452.226 144.785C452.284 144.974 452.309 145.173 452.309 145.39C452.309 146.652 451.463 148.503 451.463 152.315C451.463 152.72 451.472 153.147 451.494 153.597C451.504 153.813 451.509 154.027 451.509 154.238C451.509 159.418 448.515 163.421 444.039 169.409ZM110.793 204.77C110.793 204.988 110.789 205.204 110.782 205.421C90.8782 224.904 78.0007 217.8 64.4693 210.336C53.5112 204.291 42.1241 198.01 26.2294 205.421C7.65326 214.082 2.62244 193.229 2.62244 170.37C2.62244 149.516 6.80908 126.992 8.71851 123.678C12.7209 116.733 33.734 106.048 59.7502 112.459C85.7664 118.87 80.2629 151.46 87.2673 162.145C88.9072 164.647 91.0956 167.529 93.4794 170.669C101.13 180.746 110.793 193.473 110.793 204.77ZM138.799 113.527C144.303 116.199 148.305 120.473 148.305 130.624C148.501 132.02 148.595 133.207 148.595 134.225C148.595 138.994 146.543 140.076 143.355 141.757C142.015 142.464 140.473 143.277 138.799 144.514C137.192 145.703 136.532 147.543 136.532 149.698C136.532 156.262 142.661 165.741 146.804 168.556C147.255 168.863 147.759 169.187 148.299 169.533C152.326 172.122 158.29 175.955 158.29 182.868C158.29 186.331 156.794 190.566 152.808 195.804C139.8 212.9 122.789 191.53 121.288 188.858C119.787 186.187 104.778 168.556 98.2741 157.871C96.4789 154.922 95.7128 151.932 95.7128 148.946C95.7128 141.115 100.984 133.312 106.779 126.35C114.784 116.733 133.296 110.856 138.799 113.527ZM521.037 121.007C525.707 120.209 529.61 118.368 533.188 116.681C539.193 113.849 544.285 111.447 550.555 115.13C556.182 118.435 558.328 120.219 558.328 123.903C558.328 126.408 557.336 129.79 555.772 135.126C555.546 135.898 555.307 136.711 555.058 137.569C551.874 148.525 548.69 160.816 548.69 172.176C548.69 176.882 549.236 181.428 550.555 185.653C551.197 187.709 551.503 189.58 551.503 191.273C551.503 201.46 540.412 205.192 524.539 203.818C509.267 202.495 499.103 201.173 499.103 189.652C499.103 187.208 499.561 184.304 500.524 180.844C501.937 175.768 503.416 171.784 504.631 168.512C506.183 164.333 507.303 161.315 507.303 158.668C507.303 155.317 505.509 152.559 500.524 148.789C497.513 146.511 496.201 143.092 496.201 139.381C496.201 128.292 507.917 114.602 521.037 121.007ZM200.499 143.315C200.447 143.699 200.393 144.099 200.338 144.514C199.841 148.254 178.324 149.857 174.321 155.734C174.012 156.189 173.708 156.647 173.406 157.102C169.806 162.53 166.465 167.567 156.31 162.145C154.274 161.058 153.42 159.039 153.42 156.436C153.42 144.966 170.021 122.156 175.322 117.801C180.866 113.247 186.047 116.845 189.625 119.33C190.244 119.76 190.815 120.157 191.332 120.473C194.834 122.61 195.835 126.35 198.837 130.624C200.535 133.042 201.112 134.776 201.112 137.18C201.112 138.79 200.854 140.699 200.499 143.315ZM624.601 123.678C640.611 130.624 639.61 155.2 668.628 155.734C686.264 155.734 695.393 167.272 695.393 181.862C695.393 188.795 693.331 196.417 689.141 203.818C676.133 226.791 599.586 214.503 577.072 197.941C566.434 190.116 561.828 177.878 561.828 165.509C561.828 151.7 567.57 137.728 577.072 129.555C595.083 114.061 608.591 116.733 624.601 123.678ZM232.357 139.706C235.862 142.088 237.744 143.819 237.744 146.281C237.744 147.684 237.132 149.326 235.86 151.46C233.779 154.951 232.581 160.706 232.581 165.586C232.581 168.92 233.14 171.847 234.359 173.365C235.669 174.997 236.407 177.851 236.407 180.682C236.407 184.338 235.177 187.955 232.357 188.858C231.956 188.987 231.51 189.133 231.024 189.291C225.457 191.109 214.745 194.607 207.842 193.132C200.338 191.53 181.826 187.256 180.325 178.707C180.068 177.241 179.943 175.648 179.943 174.008C179.943 166.089 182.856 157.062 187.83 155.734C193.833 154.131 206.842 151.46 210.844 151.46C214.847 151.46 223.352 139.706 226.854 139.706L232.357 139.706ZM277.385 151.46C288.893 161.611 291.394 164.817 291.394 170.159C291.393 175.384 291.295 178.707 283.389 178.707C279.572 178.707 275.982 179.436 272.512 180.141C268.704 180.914 265.04 181.658 261.375 181.379C254.715 180.871 245.793 168.286 245.793 162.917C245.793 162.639 245.817 162.381 245.866 162.145C246.866 157.337 261.375 142.912 267.379 143.446C272.182 143.873 276.051 148.967 277.385 151.46ZM720.793 159.824C721.394 160.574 722.016 161.349 722.662 162.145C727.454 168.748 736.343 183.856 736.343 194.879C736.343 195.749 736.288 196.594 736.17 197.407C734.169 211.297 715.658 211.832 704.151 211.832C701.263 211.832 700.171 210.453 700.171 208.303C700.171 204.397 703.774 197.946 706.765 192.591C708.69 189.144 710.361 186.152 710.655 184.584C710.755 184.047 710.805 183.489 710.805 182.903C710.805 177.663 706.798 170.258 699.147 156.803C696.728 152.548 695.766 150.108 695.766 148.783C695.766 146.776 697.975 147.327 700.67 147.999C702.45 148.444 704.443 148.941 706.152 148.789C711.559 148.307 715.343 153.027 720.793 159.824ZM481.512 151.46C487.129 154.126 490.605 161.363 490.605 168.118C490.605 172.194 489.339 176.094 486.515 178.707C484.567 180.511 482.719 182.602 480.964 184.589C475.96 190.255 471.708 195.069 468.004 189.927C467.286 188.931 466.486 187.868 465.656 186.766C461.796 181.641 457.274 175.637 457.274 171.285C457.274 170.043 457.642 168.936 458.498 168.022C463.001 163.214 469.505 151.46 481.512 151.46ZM379.449 164.282C381.194 165.028 383.427 168.635 383.427 171.111C383.427 172.182 383.009 173.042 381.95 173.365C381.34 173.551 380.699 173.77 380.054 173.99C377 175.032 373.858 176.105 373.445 173.899C373.408 173.702 373.39 173.482 373.39 173.243C373.39 170.241 376.205 164.282 379.449 164.282ZM170.319 175.502C172.494 177.244 173.783 179.302 173.783 181.247C173.783 182.88 172.874 184.434 170.819 185.653C166.316 188.324 163.315 177.105 163.315 175.502C163.315 173.899 166.817 174.433 170.319 175.502ZM307.904 182.981C312.691 184.161 317.478 187.656 317.478 190.484C317.478 191.498 316.862 192.427 315.409 193.132C309.906 195.804 296.397 198.475 293.896 195.804C293.495 195.376 293.299 194.591 293.299 193.601C293.299 188.414 298.661 177.598 307.904 182.981ZM377.448 182.981C383.451 180.844 384.452 188.324 384.452 193.132C384.452 197.941 380.95 202.749 377.448 203.818C375.946 204.276 374.536 203.752 372.863 203.13C370.635 202.301 367.94 201.299 363.939 202.215C356.935 203.818 349.93 204.886 347.929 204.886C346.313 204.886 342.741 203.493 342.741 200.426C342.741 199.694 342.945 198.867 343.426 197.941C345.928 193.132 349.93 188.324 356.935 188.324C359.757 188.324 361.767 188.931 363.357 189.412C365.714 190.124 367.15 190.557 368.942 188.324C371.344 185.332 375.613 183.516 377.448 182.981ZM756.183 183.516C763.401 186.085 771.905 193.46 771.905 196.286C771.905 196.986 771.383 197.407 770.192 197.407C768.234 197.407 766.17 198.088 764.173 198.748C760.046 200.111 756.205 201.379 754.182 196.338C752.816 192.934 751.968 189.752 751.968 187.395C751.968 184.572 753.184 182.933 756.183 183.516ZM448.992 185.653C450.113 189.004 453.041 191.068 455.302 192.662C456.939 193.816 458.227 194.723 458.227 195.694C458.227 196.376 457.591 197.089 455.996 197.941C448.992 201.681 442.988 207.023 440.987 207.023C439.3 207.023 437.257 205.125 437.257 200.687C437.257 199.861 437.328 198.947 437.485 197.941C438.485 191.53 440.987 188.858 443.989 188.324C445.261 188.098 445.545 187.103 445.792 186.236C446.128 185.057 446.398 184.114 448.992 185.653ZM252.87 188.324C259.875 188.324 275.384 197.941 280.888 205.421C281.247 206.428 281.413 207.272 281.413 207.976C281.413 212.153 275.572 211.392 269.725 210.631C265.589 210.093 261.45 209.554 259.374 210.763C253.871 213.969 223.352 208.092 219.349 202.215C218.771 201.366 218.516 200.728 218.516 200.259C218.516 198.401 222.514 199.19 226.184 199.914C227.995 200.271 229.725 200.612 230.857 200.612C234.859 200.612 245.866 188.324 252.87 188.324ZM171.32 193.667C175.822 191.53 180.325 193.132 184.328 195.804C185.561 196.581 202.339 200.612 207.342 203.284C207.935 203.6 208.205 203.865 208.205 204.087C208.205 205.001 203.647 205.207 198.305 205.447C193.995 205.641 189.176 205.858 185.828 206.489C177.443 208.069 160.302 207.053 160.302 204.976C160.302 204.946 160.306 204.916 160.313 204.886C160.813 202.749 166.817 195.804 171.32 193.667ZM487.516 195.804C489.292 198.016 490.543 200.042 490.543 201.438C490.543 202.402 489.947 203.065 488.517 203.284C488.034 203.357 487.579 203.431 487.151 203.5C484.472 203.935 482.806 204.205 481.512 203.284C481.158 203.031 480.971 202.213 480.971 201.174C480.971 197.811 482.93 192.13 487.516 195.804ZM322.914 209.695C322.848 210.46 322.809 211.144 322.774 211.751C322.538 215.805 322.502 216.431 316.41 215.037C312.584 214.162 310.997 211.373 310.997 208.936C310.997 206.911 312.092 205.129 313.908 204.886C317.911 204.352 321.413 204.352 322.914 209.695Z" fill="url(#paint_radial_4_30_0)" fill-opacity="1.000000" fill-rule="evenodd"/>
	</g>
</svg>
