<svg width="956.472900" height="627.995728" viewBox="0 0 956.473 627.996" fill="none" xmlns="http://www.w3.org/2000/svg" xmlns:xlink="http://www.w3.org/1999/xlink">
	<desc>
			Created with Pixso.
	</desc>
	<defs>
		<linearGradient id="paint_linear_18_508_0" x1="474.504517" y1="-26.494364" x2="474.504517" y2="626.500000" gradientUnits="userSpaceOnUse">
			<stop stop-color="#FA00FF"/>
			<stop offset="1.000000" stop-color="#FA00FF" stop-opacity="0.000000"/>
		</linearGradient>
		<linearGradient id="paint_linear_18_508_1" x1="478.235474" y1="1.500000" x2="478.235474" y2="626.500000" gradientUnits="userSpaceOnUse">
			<stop stop-color="#915EFF"/>
			<stop offset="1.000000" stop-color="#915EFF" stop-opacity="0.000000"/>
		</linearGradient>
	</defs>
	<path id="Vector 2" d="" fill="url(#paint_linear_18_508_0)" fill-opacity="0" fill-rule="nonzero"/>
	<path id="Vector 2" d="M942.386 209.542C956.692 273.555 961.46 366.374 942.386 407.983C923.311 449.591 912.581 508.803 889.334 476.797C866.086 444.79 863.106 391.979 842.839 385.578C822.572 379.177 808.862 385.578 798.132 385.578C787.403 385.578 752.83 331.167 763.559 241.549C774.289 151.931 834.494 23.0845 889.334 13.4825C938.213 21.4841 928.08 145.529 942.386 209.542ZM757.002 209.542C749.849 252.751 736.735 318.365 689.048 275.156C641.361 231.947 653.283 76.7153 702.758 87.9176C742.696 81.5162 764.155 166.333 757.002 209.542ZM651.495 20.7039C627.055 30.3058 610.961 20.7039 604.404 62.3124C597.847 103.921 584.733 127.926 604.404 151.931C624.074 175.935 630.631 294.36 643.149 262.353C655.667 230.347 644.341 183.937 647.918 135.927C650.779 97.5195 659.045 82.5831 662.82 79.9159C682.491 43.1084 675.934 11.1019 651.495 20.7039ZM737.216 315.884C718.141 295.08 710.507 315.164 689.048 361.573C667.589 407.983 662.224 516.805 689.048 566.415C715.872 616.025 807.074 652.833 822.572 584.019C838.07 515.205 829.129 439.989 798.132 439.989C763.559 438.389 756.291 336.688 737.216 315.884ZM675.261 291.159C687.183 308.763 668.185 339.169 662.82 385.578C657.455 431.988 652.091 486.399 657.455 529.608C662.82 572.816 648.514 588.82 626.459 584.019C604.404 579.218 591.29 574.417 597.847 515.205C604.404 455.993 612.153 446.391 597.847 419.185C583.54 391.979 601.423 310.363 622.286 335.968C637.188 329.567 663.339 273.555 675.261 291.159ZM607.98 262.353C610.364 289.559 599.039 284.758 587.713 318.365C576.387 351.971 576.984 351.971 575.195 385.578C573.407 419.185 559.697 414.384 544.795 385.578C529.893 356.772 511.414 369.575 514.99 252.751C518.567 135.927 516.182 107.121 528.7 103.921C541.218 100.72 568.638 123.125 575.195 151.931C580.441 174.975 586.918 193.539 589.501 199.94C609.768 233.547 605.596 235.148 607.98 262.353ZM581.156 508.803C572.215 529.608 565.062 563.214 559.101 542.41C553.14 521.606 542.41 491.2 547.775 476.797C553.14 462.394 560.889 427.187 575.195 427.187C585.925 439.989 590.097 487.999 581.156 508.803ZM539.43 433.588C538.834 401.581 545.987 409.583 528.7 391.979C511.414 374.376 498.896 359.973 496.512 343.97C494.127 327.966 500.684 292.759 479.225 305.562C457.766 318.365 440.479 337.568 441.075 361.573C441.671 385.578 442.268 411.183 453.593 433.588C464.919 455.993 472.668 475.197 473.86 508.803C475.052 542.41 466.707 566.415 481.609 566.415C496.512 566.415 496.512 604.823 511.414 560.014C525.72 481.598 540.026 465.594 539.43 433.588ZM494.127 275.156C500.088 262.353 505.453 231.947 506.049 209.542C506.645 187.138 511.414 183.937 506.049 167.934C500.684 151.931 486.974 124.725 479.225 134.327C471.476 143.929 475.648 179.136 479.225 188.738C482.086 196.42 476.841 225.546 479.225 233.547C479.225 262.353 488.166 287.958 494.127 275.156ZM461.342 175.935C456.574 151.931 461.342 65.5129 441.075 59.1117C420.808 52.7103 411.867 83.1166 396.369 113.523C380.87 143.929 373.717 185.537 391.6 219.144C409.483 252.751 415.444 244.75 423.789 281.557C432.134 318.365 432.134 331.167 441.075 318.365C450.017 305.562 461.938 297.56 466.111 275.156C468.495 233.547 466.111 199.94 461.342 175.935ZM495.319 78.3156C489.955 103.921 486.974 110.322 481.609 108.722C476.245 107.121 468.495 92.7185 469.092 79.9159C469.688 67.1133 469.688 20.7039 479.225 20.7039C486.378 15.903 500.684 52.7103 495.319 78.3156ZM450.017 31.0862C449.421 35.8871 444.056 37.4874 441.075 35.8871C438.095 34.2867 433.326 35.8871 432.134 31.0862C430.942 26.2852 438.095 16.6832 442.864 13.4825C446.44 11.8822 450.613 26.2852 450.017 31.0862ZM429.154 414.384C419.02 387.178 410.079 313.563 407.694 300.761C405.31 287.958 399.945 255.952 391.004 260.753C382.063 265.554 365.372 252.751 360.007 267.154C354.643 281.557 343.317 355.172 351.662 391.979C360.007 428.787 365.968 465.594 378.486 478.397C391.004 491.2 393.388 532.808 406.502 526.407C419.616 520.006 434.029 504.002 435.114 478.397C435.711 454.392 439.287 441.59 429.154 414.384ZM364.776 118.324C358.815 102.32 354.046 99.1198 341.529 103.921C329.011 108.722 303.975 119.924 303.379 139.128C302.783 158.332 301.591 159.932 309.34 199.94C317.089 239.948 318.281 244.75 312.916 281.557C307.552 318.365 301.591 334.368 306.359 351.971C311.128 369.575 318.281 385.578 324.838 364.774C331.395 343.97 327.819 295.96 331.991 281.557C336.164 267.154 343.317 228.746 348.682 227.146C354.046 225.546 360.603 214.343 364.776 199.94C367.756 183.937 370.737 134.327 364.776 118.324ZM348.682 483.198C348.682 499.201 348.682 508.803 339.144 508.803C329.607 508.803 321.262 518.405 312.916 516.805C304.571 515.205 293.245 473.596 294.438 459.193C295.63 444.79 312.916 401.581 320.069 403.182C325.792 404.462 330.402 419.719 331.991 427.187C345.701 457.593 348.682 467.195 348.682 483.198ZM377.294 552.012C370.737 560.014 354.643 568.015 351.662 560.014C348.682 552.012 355.239 502.402 368.353 521.606C376.102 526.407 383.851 544.01 377.294 552.012ZM378.486 617.625C370.141 612.825 370.737 588.82 375.506 587.219C380.274 585.619 384.447 585.619 386.235 601.622C385.639 619.226 386.831 622.427 378.486 617.625ZM291.457 235.147C284.304 199.94 272.978 183.937 267.614 183.937C262.249 183.937 225.292 198.34 225.291 219.144C225.291 239.948 233.637 302.361 240.194 318.365C246.751 334.368 240.79 377.577 263.441 364.774C281.562 354.532 287.682 324.232 288.477 310.363C292.649 267.154 298.61 270.355 291.457 235.147ZM282.516 427.187C278.343 444.79 277.151 481.598 280.728 492.8C284.304 504.002 284.304 534.409 278.343 539.209C272.382 544.01 258.076 556.813 249.135 552.012C240.194 547.211 218.138 534.408 216.35 508.803C214.562 483.198 218.138 444.79 225.291 439.989C232.444 435.188 247.943 427.187 252.711 427.187C257.48 427.187 267.614 391.979 271.786 391.979C275.124 391.979 277.548 391.979 278.343 391.979C284.9 403.182 286.689 409.583 282.516 427.187ZM238.405 364.774C234.829 351.971 233.637 340.769 229.464 334.368C225.291 327.966 218.138 310.363 210.389 326.366C202.64 342.369 174.624 441.59 187.738 459.193C200.852 476.797 204.428 457.593 209.197 439.989C213.966 422.386 239.603 417.585 240.194 406.382C241.386 383.978 241.982 377.577 238.405 364.774ZM211.581 174.335C212.774 199.94 214.562 223.945 216.946 246.35C219.331 268.754 221.119 287.958 216.946 291.159C212.773 294.36 208.601 300.761 204.428 313.563C200.256 326.366 196.083 347.17 189.526 332.767C182.969 318.365 177.604 295.96 178.2 281.557C178.796 267.154 174.028 239.948 169.855 227.146C165.682 214.343 158.53 191.939 166.875 180.736C175.22 169.534 182.373 158.332 187.142 150.33C193.699 142.329 210.389 148.73 211.581 174.335ZM219.331 145.529C218.138 132.727 209.197 107.121 210.389 99.1199C211.581 91.1182 219.927 81.5162 225.291 81.5162C230.656 81.5162 237.213 105.521 246.154 115.123C255.096 124.725 264.037 134.327 268.806 134.327C273.574 134.327 267.614 161.532 262.845 161.532C258.076 161.532 252.115 164.733 244.366 172.735C236.617 180.736 226.608 188.738 225.291 180.736C222.907 164.733 220.523 158.332 219.331 145.529ZM299.802 188.738C301.591 199.94 289.073 187.138 284.9 183.937C280.728 180.736 275.363 172.735 276.555 161.532C277.747 150.33 285.496 132.727 288.477 139.128C291.457 145.529 298.014 177.536 299.802 188.738ZM284.9 110.322C281.324 124.725 278.939 127.926 277.151 123.125C275.363 118.324 272.382 89.5178 276.555 86.3171C283.708 84.7168 288.477 95.9192 284.9 110.322ZM331.991 86.3171C328.415 94.3188 302.783 110.322 299.206 102.32C295.63 94.3188 288.477 81.5162 299.802 68.7136C308.148 76.7152 335.568 78.3156 331.991 86.3171ZM166.875 313.563C160.318 305.562 138.263 323.166 128.725 351.971C119.188 380.777 110.843 414.384 118.592 446.391C126.341 478.397 144.223 531.208 146.012 539.209C147.8 547.211 168.067 611.224 183.565 560.014C199.063 508.803 182.969 489.599 176.412 478.397C169.855 467.195 159.126 420.785 166.875 406.382C174.624 391.979 179.989 396.781 178.2 364.774C178.2 334.368 173.432 321.565 166.875 313.563ZM105.478 459.193C97.1324 427.187 103.689 329.567 72.6928 310.363C41.6962 291.159 16.6605 323.165 11.8918 343.97C7.12305 364.774 -9.56726 638.43 32.7549 588.82C75.0771 539.21 90.5754 694.441 133.494 588.82C134.09 544.01 113.823 491.2 105.478 459.193ZM101.901 183.937C100.709 235.147 98.3247 286.358 76.8655 271.955C55.4062 257.552 39.908 262.353 32.7549 271.955C25.6019 281.557 17.2567 307.162 9.50745 267.154C1.75824 227.146 -5.39471 89.5178 13.6801 68.7136C32.7549 47.9094 18.4488 45.6965 25.6019 31.2936C31.3243 19.7712 37.921 16.8906 40.504 16.8906C86.9989 29.6932 103.093 132.727 101.901 183.937ZM111.439 134.327C112.035 174.335 104.882 263.953 101.901 281.557C98.9207 299.161 95.9402 295.96 100.709 319.965C105.478 343.97 108.458 351.971 118.592 332.767C128.725 313.563 141.839 281.557 148.992 276.756C156.145 271.955 166.875 270.355 163.298 252.751C159.722 235.148 154.953 219.144 154.953 199.94C154.953 180.736 156.741 156.732 163.298 145.529C169.855 134.327 184.757 134.327 187.142 118.324C189.526 102.32 191.91 71.9143 182.969 55.911C174.028 39.9077 174.624 28.7054 163.298 22.3042C151.973 15.9028 150.78 56.8988 126.341 24.8922C101.901 -7.11426 94.8785 2.48767 98.9207 31.2936C103.689 60.0994 110.842 94.3188 111.439 134.327ZM92.3637 60.0995C89.9793 63.3002 71.5007 26.4927 69.7123 20.0913C67.924 13.6901 76.8654 5.68823 82.2302 16.8906C91.1714 40.8956 94.7481 56.8988 92.3637 60.0995ZM842.839 419.185C835.686 420.785 824.36 398.381 834.494 443.19C844.627 487.999 849.396 510.404 848.204 526.407C847.011 542.41 826.745 608.024 840.454 608.024C854.165 608.024 876.22 606.423 878.604 564.815C880.512 531.528 868.669 480.531 862.51 459.193C854.761 435.188 849.992 417.585 842.839 419.185ZM951.505 552.012C944.352 552.012 903.64 584.019 900.063 561.614C896.487 539.21 895.891 520.006 902.448 523.206C913.177 532.808 958.658 552.012 951.505 552.012ZM769.385 137.922C764.02 141.123 749.728 107.121 747.343 99.1199C744.959 91.1183 812.276 39.8326 765.215 33.7605C718.153 27.6882 763.422 1.5 772.363 1.5C779.516 1.5 822.504 7.67554 815.851 33.7605C809.894 57.115 774.75 134.721 769.385 137.922ZM750.322 66.924C744.361 71.7249 695.605 67.1133 693.817 62.3124C692.029 57.5115 707.426 20.7039 713.387 15.903C725.309 7.90137 756.283 62.123 750.322 66.924ZM578.176 99.1199C569.234 95.9192 557.313 83.1167 550.756 73.5146C544.199 63.9126 527.508 60.7119 517.971 59.1117C508.433 57.5115 500.088 9.07349 514.99 12.2743C529.893 15.475 552.544 33.5065 560.293 30.3059C568.042 27.1052 582.944 19.1036 581.156 46.3091C580.56 67.1134 587.117 102.321 578.176 99.1199ZM383.255 19.1036C362.988 22.3042 337.952 41.5083 333.779 52.7104C329.607 63.9126 354.643 78.3156 364.776 86.3171C374.909 94.3188 371.929 113.523 379.678 102.32C387.427 91.1183 413.655 70.3138 409.483 41.5081C406.502 25.5049 403.522 15.9031 383.255 19.1036ZM315.301 59.1117C311.724 63.9126 300.995 30.1807 312.916 20.5787C319.473 20.5787 318.877 54.3107 315.301 59.1117ZM278.939 20.5787C266.421 15.7778 256.288 10.9769 246.154 15.7778C236.021 20.5787 227.08 55.911 233.041 68.7136C239.001 81.5162 244.366 94.3188 249.731 102.32C255.096 110.322 267.018 113.523 266.422 103.921C265.825 94.3188 260.461 81.5164 264.633 75.115C268.806 68.7136 285.179 71.9143 286.092 63.9126C287.285 47.9094 291.457 25.3796 278.939 20.5787ZM210.389 19.1036C200.256 14.3026 185.95 3.10022 189.526 22.3042C193.103 41.5081 196.679 63.9128 196.083 75.115C195.487 86.3171 196.083 107.121 201.448 94.3188C206.813 81.5162 210.389 68.7136 216.946 63.9126C222.192 60.0719 221.914 47.376 221.119 41.5081C221.715 22.3042 220.523 23.9045 210.389 19.1036ZM200.256 113.523C196.083 115.123 193.699 126.325 196.083 126.325C198.467 126.325 201.448 129.526 204.428 134.327C206.813 138.168 207.409 130.593 207.409 126.325C207.409 118.324 204.428 111.922 200.256 113.523ZM544.795 566.415C536.449 577.617 529.296 593.621 526.912 593.621C524.528 593.621 521.547 585.619 522.74 566.415C523.932 547.211 526.912 539.21 530.489 537.609C534.065 536.009 531.085 521.606 536.449 529.608C539.43 552.012 553.14 555.213 544.795 566.415ZM459.554 552.012C459.554 566.415 455.381 580.818 451.209 584.019C447.036 587.219 443.46 574.417 435.114 579.218C426.769 584.019 418.424 587.219 416.04 587.219C413.655 587.219 407.694 580.818 410.675 566.415C413.655 552.012 418.424 537.609 426.769 537.609C435.114 537.609 437.499 548.812 441.075 537.609C443.937 528.647 449.023 523.206 451.209 521.606C458.362 515.205 459.554 537.609 459.554 552.012ZM456.574 492.8C452.401 496.001 447.036 502.402 446.44 494.4C445.844 486.399 449.421 465.595 453.593 465.595C456.574 468.795 460.746 489.599 456.574 492.8ZM583.54 582.418C579.368 584.019 576.984 585.619 575.195 582.418C573.407 579.218 575.195 545.611 582.348 560.014C585.925 571.216 587.713 580.818 583.54 582.418ZM302.783 537.609C294.438 537.609 281.324 574.417 276.555 574.417C271.786 574.417 258.076 561.614 262.845 579.218C267.614 596.821 303.975 614.425 310.532 604.823C317.089 595.221 340.933 622.427 336.164 588.82C329.607 566.415 311.128 537.609 302.783 537.609ZM205.621 553.613C200.256 560.014 193.103 580.818 192.507 587.219C191.91 593.621 212.774 596.822 222.907 592.02C233.041 587.219 254.5 590.42 248.539 582.418C242.578 574.417 222.589 562.343 221.119 560.014C216.35 552.012 210.985 547.211 205.621 553.613ZM205.024 529.608C199.66 537.609 196.083 504.002 196.083 499.201C196.083 494.401 200.256 496.001 204.428 499.201C209.197 508.803 210.389 521.606 205.024 529.608Z" stroke="url(#paint_linear_18_508_1)" stroke-opacity="1.000000" stroke-width="3.000000"/>
</svg>
