<svg width="812.000000" height="107.000000" viewBox="0 0 812 107" fill="none" xmlns="http://www.w3.org/2000/svg" xmlns:xlink="http://www.w3.org/1999/xlink">
	<desc>
			Created with Pixso.
	</desc>
	<defs>
		<filter id="filter_28_278_dd" x="338.000000" y="56.000000" width="51.000000" height="51.000000" filterUnits="userSpaceOnUse" color-interpolation-filters="sRGB">
			<feFlood flood-opacity="0" result="BackgroundImageFix"/>
			<feBlend mode="normal" in="SourceGraphic" in2="BackgroundImageFix" result="shape"/>
			<feGaussianBlur stdDeviation="1.33333" result="effect_layerBlur_1"/>
		</filter>
		<filter id="filter_28_279_dd" x="722.000000" y="0.000000" width="90.000000" height="90.000000" filterUnits="userSpaceOnUse" color-interpolation-filters="sRGB">
			<feFlood flood-opacity="0" result="BackgroundImageFix"/>
			<feBlend mode="normal" in="SourceGraphic" in2="BackgroundImageFix" result="shape"/>
			<feGaussianBlur stdDeviation="4" result="effect_layerBlur_1"/>
		</filter>
		<filter id="filter_28_281_dd" x="513.000000" y="57.000000" width="41.000000" height="41.000000" filterUnits="userSpaceOnUse" color-interpolation-filters="sRGB">
			<feFlood flood-opacity="0" result="BackgroundImageFix"/>
			<feBlend mode="normal" in="SourceGraphic" in2="BackgroundImageFix" result="shape"/>
			<feGaussianBlur stdDeviation="4" result="effect_layerBlur_1"/>
		</filter>
		<filter id="filter_28_282_dd" x="55.000000" y="23.000000" width="50.000000" height="50.000000" filterUnits="userSpaceOnUse" color-interpolation-filters="sRGB">
			<feFlood flood-opacity="0" result="BackgroundImageFix"/>
			<feBlend mode="normal" in="SourceGraphic" in2="BackgroundImageFix" result="shape"/>
			<feGaussianBlur stdDeviation="4" result="effect_layerBlur_1"/>
		</filter>
		<radialGradient id="paint_radial_28_278_0" cx="0.000000" cy="0.000000" r="1.000000" gradientUnits="userSpaceOnUse" gradientTransform="translate(21.5 21.5) rotate(90) scale(21.5 21.5)">
			<stop stop-color="#FD97FF"/>
			<stop offset="1.000000" stop-color="#A283E2" stop-opacity="0.121569"/>
		</radialGradient>
		<radialGradient id="paint_radial_28_279_0" cx="0.000000" cy="0.000000" r="1.000000" gradientUnits="userSpaceOnUse" gradientTransform="translate(33 33) rotate(90) scale(33 33)">
			<stop stop-color="#FD97FF"/>
			<stop offset="1.000000" stop-color="#A283E2" stop-opacity="0.121569"/>
		</radialGradient>
		<radialGradient id="paint_radial_28_280_0" cx="0.000000" cy="0.000000" r="1.000000" gradientUnits="userSpaceOnUse" gradientTransform="translate(13 13) rotate(90) scale(13 13)">
			<stop stop-color="#FD97FF"/>
			<stop offset="1.000000" stop-color="#A283E2" stop-opacity="0.121569"/>
		</radialGradient>
		<radialGradient id="paint_radial_28_281_0" cx="0.000000" cy="0.000000" r="1.000000" gradientUnits="userSpaceOnUse" gradientTransform="translate(8.5 8.5) rotate(90) scale(8.5 8.5)">
			<stop stop-color="#FD97FF"/>
			<stop offset="1.000000" stop-color="#A283E2" stop-opacity="0.121569"/>
		</radialGradient>
		<radialGradient id="paint_radial_28_282_0" cx="0.000000" cy="0.000000" r="1.000000" gradientUnits="userSpaceOnUse" gradientTransform="translate(13 13) rotate(90) scale(13 13)">
			<stop stop-color="#FD97FF"/>
			<stop offset="1.000000" stop-color="#A283E2" stop-opacity="0.121569"/>
		</radialGradient>
		<radialGradient id="paint_radial_28_283_0" cx="0.000000" cy="0.000000" r="1.000000" gradientUnits="userSpaceOnUse" gradientTransform="translate(8.5 8.5) rotate(90) scale(8.5 8.5)">
			<stop stop-color="#FD97FF"/>
			<stop offset="1.000000" stop-color="#A283E2" stop-opacity="0.121569"/>
		</radialGradient>
		<radialGradient id="paint_radial_28_284_0" cx="0.000000" cy="0.000000" r="1.000000" gradientUnits="userSpaceOnUse" gradientTransform="translate(8.5 8.5) rotate(90) scale(8.5 8.5)">
			<stop stop-color="#FD97FF"/>
			<stop offset="1.000000" stop-color="#A283E2" stop-opacity="0.121569"/>
		</radialGradient>
		<radialGradient id="paint_radial_28_285_0" cx="0.000000" cy="0.000000" r="1.000000" gradientUnits="userSpaceOnUse" gradientTransform="translate(8.5 8.5) rotate(90) scale(8.5 8.5)">
			<stop stop-color="#FD97FF"/>
			<stop offset="1.000000" stop-color="#A283E2" stop-opacity="0.121569"/>
		</radialGradient>
		<radialGradient id="paint_radial_28_286_0" cx="0.000000" cy="0.000000" r="1.000000" gradientUnits="userSpaceOnUse" gradientTransform="translate(8.5 8.5) rotate(90) scale(8.5 8.5)">
			<stop stop-color="#FD97FF"/>
			<stop offset="1.000000" stop-color="#A283E2" stop-opacity="0.121569"/>
		</radialGradient>
		<radialGradient id="paint_radial_28_287_0" cx="0.000000" cy="0.000000" r="1.000000" gradientUnits="userSpaceOnUse" gradientTransform="translate(8.5 8.5) rotate(90) scale(8.5 8.5)">
			<stop stop-color="#FD97FF"/>
			<stop offset="1.000000" stop-color="#A283E2" stop-opacity="0.121569"/>
		</radialGradient>
	</defs>
	<g filter="url(#filter_28_278_dd)">
		<path id="Star 1" d="M363.5 60L369.307 75.693L385 81.5L369.307 87.307L363.5 103L357.693 87.307L342 81.5L357.693 75.693L363.5 60Z" fill="url(#paint_radial_28_278_0)" fill-opacity="1.000000" fill-rule="evenodd"/>
	</g>
	<g filter="url(#filter_28_279_dd)">
		<path id="Star 8" d="M767 12L775.913 36.087L800 45L775.913 53.913L767 78L758.087 53.913L734 45L758.087 36.087L767 12Z" fill="url(#paint_radial_28_279_0)" fill-opacity="1.000000" fill-rule="evenodd"/>
	</g>
	<path id="Star 2" d="M142 28L145.511 37.4888L155 41L145.511 44.5112L142 54L138.489 44.5112L129 41L138.489 37.4888L142 28Z" fill="url(#paint_radial_28_280_0)" fill-opacity="1.000000" fill-rule="evenodd"/>
	<g filter="url(#filter_28_281_dd)">
		<path id="Star 3" d="M533.5 69L535.796 75.2042L542 77.5L535.796 79.7958L533.5 86L531.204 79.7958L525 77.5L531.204 75.2042L533.5 69Z" fill="url(#paint_radial_28_281_0)" fill-opacity="1.000000" fill-rule="evenodd"/>
	</g>
	<g filter="url(#filter_28_282_dd)">
		<path id="Star 9" d="M80 35L83.5112 44.4888L93 48L83.5112 51.5112L80 61L76.4888 51.5112L67 48L76.4888 44.4888L80 35Z" fill="url(#paint_radial_28_282_0)" fill-opacity="1.000000" fill-rule="evenodd"/>
	</g>
	<path id="Star 10" d="M582.5 18L584.796 24.2042L591 26.5L584.796 28.7958L582.5 35L580.204 28.7958L574 26.5L580.204 24.2042L582.5 18Z" fill="url(#paint_radial_28_283_0)" fill-opacity="1.000000" fill-rule="evenodd"/>
	<path id="Star 4" d="M691.5 83L693.796 89.2042L700 91.5L693.796 93.7958L691.5 100L689.204 93.7958L683 91.5L689.204 89.2042L691.5 83Z" fill="url(#paint_radial_28_284_0)" fill-opacity="1.000000" fill-rule="evenodd"/>
	<path id="Star 11" d="M8.5 82L10.7958 88.2042L17 90.5L10.7958 92.7958L8.5 99L6.20422 92.7958L0 90.5L6.20422 88.2042L8.5 82Z" fill="url(#paint_radial_28_285_0)" fill-opacity="1.000000" fill-rule="evenodd"/>
	<path id="Star 12" d="M302.5 15L304.796 21.2042L311 23.5L304.796 25.7958L302.5 32L300.204 25.7958L294 23.5L300.204 21.2042L302.5 15Z" fill="url(#paint_radial_28_286_0)" fill-opacity="1.000000" fill-rule="evenodd"/>
	<path id="Star 13" d="M435.5 41L437.796 47.2042L444 49.5L437.796 51.7958L435.5 58L433.204 51.7958L427 49.5L433.204 47.2042L435.5 41Z" fill="url(#paint_radial_28_287_0)" fill-opacity="1.000000" fill-rule="evenodd"/>
</svg>
