<svg width="151" height="137" viewBox="0 0 151 137" fill="none" xmlns="http://www.w3.org/2000/svg">
<rect x="44.8324" width="105.705" height="105.705" transform="rotate(20.4945 44.8324 0)" fill="#0C0C0C"/>
<rect x="44.8324" width="105.705" height="105.705" transform="rotate(20.4945 44.8324 0)" fill="url(#paint0_linear_309_25)"/>
<mask id="mask0_309_25" style="mask-type:alpha" maskUnits="userSpaceOnUse" x="3" y="36" width="141" height="66">
<path d="M25.6649 54.8353C20.8515 58.8495 17.1126 64.304 14.9706 71.3717C17.2052 71.592 19.4956 72.2721 21.5923 73.0136C25.0905 74.2508 29.1488 76.0891 33.4201 78.0524C33.8573 78.2534 34.2977 78.4561 34.7413 78.6602C43.1334 82.523 52.6692 86.9122 62.5919 89.622C73.0259 92.4716 83.3627 93.3066 92.748 90.0117C100.985 87.1197 109.063 80.8417 115.983 68.668C95.3832 53.4337 73.3916 45.8109 55.1203 45.6952C43.0661 45.6188 32.9078 48.7949 25.6649 54.8353Z" fill="#F2F2F2"/>
</mask>
<g mask="url(#mask0_309_25)">
<path fill-rule="evenodd" clip-rule="evenodd" d="M69.7682 104.561C88.2129 104.561 103.165 89.6089 103.165 71.1642C103.165 52.7195 88.2129 37.7671 69.7682 37.7671C51.3235 37.7671 36.3711 52.7195 36.3711 71.1642C36.3711 89.6089 51.3235 104.561 69.7682 104.561ZM70.0346 84.2632C76.1336 84.2632 81.0779 79.319 81.0779 73.2199C81.0779 67.1209 76.1336 62.1767 70.0346 62.1767C63.9356 62.1767 58.9913 67.1209 58.9913 73.2199C58.9913 79.319 63.9356 84.2632 70.0346 84.2632Z" fill="#45758F"/>
<path fill-rule="evenodd" clip-rule="evenodd" d="M69.7682 104.561C88.2129 104.561 103.165 89.6089 103.165 71.1642C103.165 52.7195 88.2129 37.7671 69.7682 37.7671C51.3235 37.7671 36.3711 52.7195 36.3711 71.1642C36.3711 89.6089 51.3235 104.561 69.7682 104.561ZM70.0346 84.2632C76.1336 84.2632 81.0779 79.319 81.0779 73.2199C81.0779 67.1209 76.1336 62.1767 70.0346 62.1767C63.9356 62.1767 58.9913 67.1209 58.9913 73.2199C58.9913 79.319 63.9356 84.2632 70.0346 84.2632Z" fill="url(#paint1_linear_309_25)"/>
<path fill-rule="evenodd" clip-rule="evenodd" d="M69.7682 104.561C88.2129 104.561 103.165 89.6089 103.165 71.1642C103.165 52.7195 88.2129 37.7671 69.7682 37.7671C51.3235 37.7671 36.3711 52.7195 36.3711 71.1642C36.3711 89.6089 51.3235 104.561 69.7682 104.561ZM70.0346 84.2632C76.1336 84.2632 81.0779 79.319 81.0779 73.2199C81.0779 67.1209 76.1336 62.1767 70.0346 62.1767C63.9356 62.1767 58.9913 67.1209 58.9913 73.2199C58.9913 79.319 63.9356 84.2632 70.0346 84.2632Z" fill="url(#paint2_radial_309_25)"/>
<path fill-rule="evenodd" clip-rule="evenodd" d="M69.7682 104.561C88.2129 104.561 103.165 89.6089 103.165 71.1642C103.165 52.7195 88.2129 37.7671 69.7682 37.7671C51.3235 37.7671 36.3711 52.7195 36.3711 71.1642C36.3711 89.6089 51.3235 104.561 69.7682 104.561ZM70.0346 84.2632C76.1336 84.2632 81.0779 79.319 81.0779 73.2199C81.0779 67.1209 76.1336 62.1767 70.0346 62.1767C63.9356 62.1767 58.9913 67.1209 58.9913 73.2199C58.9913 79.319 63.9356 84.2632 70.0346 84.2632Z" fill="url(#paint3_linear_309_25)"/>
</g>
<path fill-rule="evenodd" clip-rule="evenodd" d="M7.75411 79.7512C7.5867 81.1272 7.46371 82.5431 7.3869 83.9994C7.28814 85.8718 5.69018 87.3096 3.81775 87.2109C1.94533 87.1121 0.507481 85.5142 0.606238 83.6417C1.464 67.3786 7.60911 54.9416 17.566 46.6379C27.4646 38.3828 40.7812 34.5008 55.5234 34.5942C84.9563 34.7806 120.878 50.7682 150.066 81.4818C151.358 82.841 151.303 84.9899 149.944 86.2816C148.585 87.5732 146.436 87.5185 145.144 86.1593C140.282 81.0435 135.241 76.3661 130.087 72.1271C121.432 87.4625 110.799 96.2015 99.1367 100.296C86.2475 104.821 72.6438 103.478 60.0565 100.04C48.1769 96.796 36.8517 91.5808 27.521 87.284L27.5101 87.279C26.9657 87.0283 26.4282 86.7807 25.8977 86.5369C21.0236 84.2965 16.8185 82.401 13.3183 81.1631C10.8217 80.2801 9.01084 79.8588 7.75411 79.7512ZM9.02396 72.9205C11.3417 63.8585 15.8714 56.8926 21.9148 51.8526C30.2811 44.8754 41.902 41.2981 55.4804 41.3841C76.3373 41.5162 101.333 50.3175 124.571 67.7877C116.479 82.5452 106.843 90.2451 96.8409 93.7565C85.8161 97.6271 73.7917 96.607 61.8824 93.3546C50.5752 90.2666 39.7271 85.273 30.3086 80.9374C29.7989 80.7028 29.2934 80.4701 28.7923 80.2397C23.9726 78.0243 19.4783 75.9904 15.6291 74.6291C13.4186 73.8473 11.1611 73.1859 9.02396 72.9205Z" fill="white"/>
<defs>
<linearGradient id="paint0_linear_309_25" x1="43.0075" y1="-1.04957" x2="148.02" y2="107.159" gradientUnits="userSpaceOnUse">
<stop stop-color="#85FF5A"/>
<stop offset="0.489583" stop-color="#FFFB8F" stop-opacity="0.94"/>
<stop offset="0.854167" stop-color="#FA00FF"/>
</linearGradient>
<linearGradient id="paint1_linear_309_25" x1="48.0426" y1="37.7671" x2="69.7352" y2="104.561" gradientUnits="userSpaceOnUse">
<stop stop-color="#42576A"/>
<stop offset="1" stop-color="#8598CA" stop-opacity="0"/>
</linearGradient>
<radialGradient id="paint2_radial_309_25" cx="0" cy="0" r="1" gradientUnits="userSpaceOnUse" gradientTransform="translate(48.5434 108.394) rotate(12.3285) scale(43.217)">
<stop stop-color="#BADEFF"/>
<stop offset="1" stop-color="#72A3D1" stop-opacity="0"/>
</radialGradient>
<linearGradient id="paint3_linear_309_25" x1="69.7682" y1="37.7671" x2="69.7682" y2="104.561" gradientUnits="userSpaceOnUse">
<stop stop-color="#3C8798"/>
<stop offset="1" stop-color="#262121"/>
</linearGradient>
</defs>
</svg>
