<svg width="39.184204" height="39.184219" viewBox="0 0 39.1842 39.1842" fill="none" xmlns="http://www.w3.org/2000/svg" xmlns:xlink="http://www.w3.org/1999/xlink">
	<desc>
			Created with Pixso.
	</desc>
	<defs>
		<clipPath id="clip4_123">
			<rect id="Frame" width="36.000000" height="36.000000" transform="translate(3.339417 0.000000) rotate(5.322539)" fill="white" fill-opacity="0"/>
		</clipPath>
	</defs>
	<rect id="Worried face" width="36.000000" height="36.000000" transform="translate(3.339417 0.000000) rotate(5.322539)" fill="#FFFFFF" fill-opacity="0"/>
	<rect id="Frame" width="36.000000" height="36.000000" transform="translate(3.339417 0.000000) rotate(5.322539)" fill="#FFFFFF" fill-opacity="0"/>
	<g clip-path="url(#clip4_123)">
		<path id="Vector" d="M37.5145 21.2618C36.5923 31.16 27.8205 38.4366 17.9224 37.5145C8.02423 36.5923 0.747559 27.8205 1.66968 17.9224C2.59186 8.02425 11.3636 0.747574 21.2618 1.66972C31.1599 2.59187 38.4366 11.3637 37.5145 21.2618Z" fill="#FFCC4D" fill-opacity="1.000000" fill-rule="nonzero"/>
		<path id="Vector" d="M24.0443 30.933C24.0374 30.8882 23.3104 26.4667 18.9891 26.0641C14.6678 25.6615 13.1366 29.8726 13.1216 29.9154C13.0491 30.1226 13.1254 30.3486 13.3021 30.4786C13.4789 30.6075 13.7253 30.6044 13.9011 30.4741C13.9108 30.467 14.9898 29.7088 18.6181 30.0468C22.1926 30.3798 23.1382 31.3015 23.174 31.338C23.2602 31.4364 23.3793 31.4947 23.5038 31.5063C23.5874 31.5141 23.674 31.5011 23.7546 31.4654C23.9602 31.3721 24.0788 31.1552 24.0443 30.933ZM31.1013 14.6384C25.5712 14.1232 23.738 9.56645 23.6626 9.37262C23.4625 8.85785 23.7174 8.27798 24.2322 8.07788C24.746 7.87767 25.3239 8.13138 25.5253 8.64326C25.5864 8.79559 27.0182 12.2493 31.2867 12.647C31.8374 12.6983 32.2409 13.1858 32.1897 13.7354C32.1385 14.285 31.6519 14.6897 31.1013 14.6384ZM9.19611 12.5976C8.64648 12.5464 8.24194 12.0587 8.29315 11.5091C8.34436 10.9595 8.83197 10.555 9.38159 10.6062C14.4427 11.0777 15.6412 8.05586 15.6904 7.92686C15.8837 7.4146 16.458 7.14671 16.9698 7.334C17.4847 7.52156 17.7548 8.08304 17.573 8.6004C17.5062 8.78903 15.8712 13.2195 9.19611 12.5976Z" fill="#664500" fill-opacity="1.000000" fill-rule="nonzero"/>
		<path id="Vector" d="M16.2463 17.7739C16.067 19.6985 14.8072 21.155 13.4324 21.0269C12.0577 20.8988 11.0886 19.2347 11.2679 17.3101C11.4471 15.3854 12.707 13.929 14.0817 14.0571C15.4565 14.1852 16.4256 15.8492 16.2463 17.7739Z" fill="#664500" fill-opacity="1.000000" fill-rule="evenodd"/>
		<path id="Vector" d="M28.1945 18.887C28.0153 20.8117 26.7554 22.2681 25.3807 22.14C24.0059 22.012 23.0368 20.3479 23.2161 18.4232C23.3954 16.4986 24.6552 15.0421 26.03 15.1702C27.4047 15.2983 28.3738 16.9624 28.1945 18.887Z" fill="#664500" fill-opacity="1.000000" fill-rule="evenodd"/>
	</g>
</svg>
