<svg width="1920.000000" height="720.000000" viewBox="0 0 1920 720" fill="none" xmlns="http://www.w3.org/2000/svg" xmlns:xlink="http://www.w3.org/1999/xlink">
	<desc>
			Created with Pixso.
	</desc>
	<defs>
		<filter id="filter_18_455_dd" x="540.000000" y="459.000000" width="903.000000" height="205.000000" filterUnits="userSpaceOnUse" color-interpolation-filters="sRGB">
			<feFlood flood-opacity="0" result="BackgroundImageFix"/>
			<feBlend mode="normal" in="SourceGraphic" in2="BackgroundImageFix" result="shape"/>
			<feGaussianBlur stdDeviation="13.3333" result="effect_layerBlur_1"/>
		</filter>
		<filter id="filter_18_456_dd" x="614.000000" y="0.000000" width="771.000000" height="720.000000" filterUnits="userSpaceOnUse" color-interpolation-filters="sRGB">
			<feFlood flood-opacity="0" result="BackgroundImageFix"/>
			<feBlend mode="normal" in="SourceGraphic" in2="BackgroundImageFix" result="shape"/>
			<feGaussianBlur stdDeviation="66.6667" result="effect_layerBlur_1"/>
		</filter>
		<clipPath id="clip18_435">
			<rect id="_Р РµР¶РёРј_РёР·РѕР»СЏС†РёРё" width="389.000000" height="119.000000" transform="translate(1060.000000 469.000000)" fill="white" fill-opacity="0"/>
		</clipPath>
		<filter id="filter_18_387_dd" x="834.630737" y="407.263916" width="320.894775" height="203.927368" filterUnits="userSpaceOnUse" color-interpolation-filters="sRGB">
			<feFlood flood-opacity="0" result="BackgroundImageFix"/>
			<feBlend mode="normal" in="SourceGraphic" in2="BackgroundImageFix" result="shape"/>
			<feColorMatrix in="SourceAlpha" type="matrix" values="0 0 0 0 0 0 0 0 0 0 0 0 0 0 0 0 0 0 127 0" result="hardAlpha"/>
			<feOffset dx="0" dy="-5"/>
			<feGaussianBlur stdDeviation="0"/>
			<feComposite in2="hardAlpha" operator="arithmetic" k2="-1" k3="1"/>
			<feColorMatrix type="matrix" values="0 0 0 0 0.52157 0 0 0 0 1 0 0 0 0 0.35294 0 0 0 1 0"/>
			<feBlend mode="normal" in2="shape" result="effect_innerShadow_1"/>
		</filter>
		<filter id="filter_18_388_dd" x="819.204285" y="426.577637" width="344.398987" height="149.657471" filterUnits="userSpaceOnUse" color-interpolation-filters="sRGB">
			<feFlood flood-opacity="0" result="BackgroundImageFix"/>
			<feColorMatrix in="SourceAlpha" type="matrix" values="0 0 0 0 0 0 0 0 0 0 0 0 0 0 0 0 0 0 127 0" result="hardAlpha"/>
			<feOffset dx="0" dy="13"/>
			<feGaussianBlur stdDeviation="8"/>
			<feComposite in2="hardAlpha" operator="out" k2="-1" k3="1"/>
			<feColorMatrix type="matrix" values="0 0 0 0 0.19608 0 0 0 0 0 0 0 0 0 0.60784 0 0 0 0.51 0"/>
			<feBlend mode="normal" in2="BackgroundImageFix" result="effect_dropShadow_1"/>
			<feBlend mode="normal" in="SourceGraphic" in2="effect_dropShadow_1" result="shape"/>
			<feColorMatrix in="SourceAlpha" type="matrix" values="0 0 0 0 0 0 0 0 0 0 0 0 0 0 0 0 0 0 127 0" result="hardAlpha"/>
			<feOffset dx="0" dy="-6"/>
			<feGaussianBlur stdDeviation="0"/>
			<feComposite in2="hardAlpha" operator="arithmetic" k2="-1" k3="1"/>
			<feColorMatrix type="matrix" values="0 0 0 0 0.25882 0 0 0 0 0 0 0 0 0 1 0 0 0 0.32 0"/>
			<feBlend mode="normal" in2="shape" result="effect_innerShadow_2"/>
		</filter>
		<filter id="filter_18_389_dd" x="947.311340" y="445.538452" width="98.595520" height="53.890747" filterUnits="userSpaceOnUse" color-interpolation-filters="sRGB">
			<feFlood flood-opacity="0" result="BackgroundImageFix"/>
			<feBlend mode="normal" in="SourceGraphic" in2="BackgroundImageFix" result="shape"/>
			<feColorMatrix in="SourceAlpha" type="matrix" values="0 0 0 0 0 0 0 0 0 0 0 0 0 0 0 0 0 0 127 0" result="hardAlpha"/>
			<feOffset dx="0" dy="-8"/>
			<feGaussianBlur stdDeviation="0"/>
			<feComposite in2="hardAlpha" operator="arithmetic" k2="-1" k3="1"/>
			<feColorMatrix type="matrix" values="0 0 0 0 0.76078 0 0 0 0 0.67843 0 0 0 0 1 0 0 0 1 0"/>
			<feBlend mode="normal" in2="shape" result="effect_innerShadow_1"/>
		</filter>
		<linearGradient id="paint_linear_4_383_0" x1="959.999878" y1="0.000000" x2="959.999878" y2="600.000000" gradientUnits="userSpaceOnUse">
			<stop stop-color="#6922FF"/>
			<stop offset="1.000000" stop-color="#4200CD"/>
		</linearGradient>
		<linearGradient id="paint_linear_18_436_0" x1="1231.500000" y1="468.981689" x2="1231.500000" y2="587.999939" gradientUnits="userSpaceOnUse">
			<stop stop-color="#FFFFFF"/>
			<stop offset="1.000000" stop-color="#FFFFFF" stop-opacity="0.000000"/>
		</linearGradient>
		<linearGradient id="paint_linear_18_425_0" x1="861.762939" y1="454.050415" x2="861.762939" y2="562.958008" gradientUnits="userSpaceOnUse">
			<stop stop-color="#FFFFFF"/>
			<stop offset="1.000000" stop-color="#FFFFFF" stop-opacity="0.000000"/>
		</linearGradient>
		<linearGradient id="paint_linear_18_387_0" x1="994.946411" y1="420.404968" x2="1123.749390" y2="617.345642" gradientUnits="userSpaceOnUse">
			<stop offset="0.197378" stop-color="#91CDA2"/>
			<stop offset="0.379518" stop-color="#FFFDCE"/>
			<stop offset="0.683319" stop-color="#FA00FF"/>
		</linearGradient>
		<radialGradient id="paint_radial_18_390_0" cx="0.000000" cy="0.000000" r="1.000000" gradientUnits="userSpaceOnUse" gradientTransform="translate(991.363 497.774) rotate(-90) scale(367.945 249.298)">
			<stop stop-color="#65E3FF"/>
			<stop offset="1.000000" stop-color="#65E3FF" stop-opacity="0.000000"/>
		</radialGradient>
		<linearGradient id="paint_linear_18_392_0" x1="941.576965" y1="242.286667" x2="1004.977600" y2="486.843201" gradientUnits="userSpaceOnUse">
			<stop stop-color="#65E3FF" stop-opacity="0.000000"/>
			<stop offset="1.000000" stop-color="#65E3FF"/>
		</linearGradient>
		<linearGradient id="paint_linear_18_393_0" x1="1010.291870" y1="243.832153" x2="1010.291870" y2="491.619995" gradientUnits="userSpaceOnUse">
			<stop stop-color="#65E3FF" stop-opacity="0.000000"/>
			<stop offset="1.000000" stop-color="#65E3FF"/>
		</linearGradient>
		<linearGradient id="paint_linear_18_389_0" x1="996.609131" y1="445.538452" x2="996.609131" y2="499.429169" gradientUnits="userSpaceOnUse">
			<stop stop-color="#3C8798"/>
			<stop offset="1.000000" stop-color="#262121"/>
		</linearGradient>
		<linearGradient id="paint_linear_18_433_0" x1="1041.000000" y1="527.000000" x2="1041.000000" y2="606.000000" gradientUnits="userSpaceOnUse">
			<stop stop-color="#FFFFFF"/>
			<stop offset="1.000000" stop-color="#FFFFFF" stop-opacity="0.000000"/>
		</linearGradient>
		<linearGradient id="paint_linear_18_434_0" x1="680.500000" y1="521.000000" x2="680.500000" y2="578.000000" gradientUnits="userSpaceOnUse">
			<stop stop-color="#FFFFFF"/>
			<stop offset="1.000000" stop-color="#FFFFFF" stop-opacity="0.000000"/>
		</linearGradient>
	</defs>
	<rect id="фрейм 1" width="1920.000000" height="600.000000" transform="translate(0.000000 54.000000)" fill="#FFFFFF" fill-opacity="0"/>
	<g filter="url(#filter_18_455_dd)">
		<ellipse id="Ellipse 9" cx="991.500000" cy="561.500000" rx="411.500000" ry="62.500000" fill="#DC39DF" fill-opacity="0.200000"/>
	</g>
	<g opacity="0.700000" filter="url(#filter_18_456_dd)">
		<ellipse id="Ellipse 10" rx="185.500000" ry="160.000000" transform="matrix(1 -1 0 0 999.5 360)" fill="#79FF49" fill-opacity="0.620000"/>
	</g>
	<rect id="_Р РµР¶РёРј_РёР·РѕР»СЏС†РёРё" width="389.000000" height="119.000000" transform="translate(1060.000000 469.000000)" fill="#FFFFFF" fill-opacity="0"/>
	<g clip-path="url(#clip18_435)">
		<path id="Vector" d="M1406.92 524.253C1405.47 524.253 1404.05 524.436 1402.69 524.746C1398.02 515.504 1388.58 509.166 1377.69 509.166C1377.58 509.166 1377.47 509.166 1377.35 509.166C1371.91 500.38 1362.33 494.535 1351.38 494.535C1343.82 494.535 1336.93 497.312 1331.59 501.914C1327.17 492.179 1317.52 485.402 1306.28 485.402C1292.18 485.402 1280.56 496.069 1278.68 509.896C1276.65 509.422 1274.57 509.148 1272.4 509.148C1272.26 509.148 1272.11 509.166 1271.97 509.166C1263.8 494.955 1248.67 485.402 1231.34 485.402C1219.39 485.402 1208.49 489.951 1200.18 497.421C1198.01 496.599 1195.77 495.96 1193.47 495.485C1187.98 480.032 1173.43 468.982 1156.34 468.982C1139.26 468.982 1125.31 479.594 1119.55 494.553C1113.72 494.59 1108.16 495.777 1103.06 497.878C1096.1 490.224 1086.17 485.421 1075.12 485.421C1054.07 485.439 1037 502.828 1037 524.253C1037 545.679 1054.07 563.068 1075.14 563.068C1077.13 563.068 1079.07 562.867 1080.97 562.574C1088.67 576.347 1103.19 585.625 1119.86 585.625C1131.81 585.625 1142.65 580.84 1150.67 573.077C1159.05 582.246 1171 588 1184.28 588C1195.27 588 1205.35 584.073 1213.25 577.516C1218.81 579.872 1224.91 581.187 1231.32 581.187C1245.05 581.187 1257.41 575.196 1266.01 565.643C1268.06 566.136 1270.19 566.41 1272.38 566.41C1279.04 566.41 1285.14 564.036 1289.97 560.108C1294.87 572.474 1306.75 581.187 1320.64 581.187C1335.66 581.187 1348.33 570.995 1352.37 557.04C1353.78 556.985 1355.17 556.839 1356.53 556.62C1361.68 562.611 1369.24 566.41 1377.67 566.41C1384.65 566.41 1391.02 563.798 1395.94 559.506C1399.04 561.734 1402.83 563.068 1406.92 563.068C1417.46 563.068 1426 554.373 1426 543.669C1426 532.966 1417.46 524.253 1406.92 524.253Z" fill="url(#paint_linear_18_436_0)" fill-opacity="1.000000" fill-rule="nonzero"/>
	</g>
	<path id="Vector" d="M583.23 510.291C584.103 508.369 585.234 506.59 586.58 504.995C590.516 496.981 598.776 491.444 608.353 491.444C613.106 491.444 617.515 492.825 621.266 495.174C627.879 487.843 637.485 483.231 648.164 483.231C658.843 483.231 668.363 487.8 674.977 495.074C680.946 487.843 689.993 483.231 700.114 483.231C709.19 483.231 717.393 486.932 723.291 492.896C728.416 486.989 735.974 483.231 744.435 483.231C748.643 483.231 752.623 484.185 756.216 485.85C758.12 467.972 773.323 454.05 791.804 454.05C810.285 454.05 825.159 467.701 827.32 485.309C830.083 484 833.161 483.231 836.425 483.231C847.691 483.231 856.881 492.028 857.483 503.088C858.986 502.689 860.56 502.447 862.192 502.447C866.501 502.447 870.452 503.942 873.573 506.419C878.812 500.668 886.357 497.053 894.76 497.053C899.026 497.053 903.063 498.006 906.699 499.672C911.981 483.131 927.542 471.132 945.937 471.132C961.054 471.132 974.267 479.245 981.425 491.33C986.578 486.32 993.636 483.231 1001.41 483.231C1007.19 483.231 1012.56 484.953 1017.06 487.871C1021.04 474.491 1033.48 464.726 1048.22 464.726C1055.98 464.726 1063.08 467.431 1068.68 471.929C1075.03 461.239 1086.74 454.065 1100.14 454.065C1120.31 454.065 1136.67 470.335 1136.67 490.391C1136.67 490.846 1136.66 491.288 1136.65 491.729C1147.87 495.33 1156 505.807 1156 518.162C1156 533.507 1143.5 545.934 1128.07 545.934C1118.85 545.934 1110.71 541.478 1105.62 534.631C1103.63 535.884 1101.27 536.624 1098.74 536.624C1097.84 536.624 1096.95 536.525 1096.1 536.354C1093.84 547.314 1084.09 555.542 1072.41 555.542C1062.35 555.542 1053.73 549.435 1050.08 540.738C1048.58 541.464 1046.89 541.891 1045.08 541.891C1044.14 541.891 1043.22 541.763 1042.35 541.549C1040.16 543.229 1037.53 544.368 1034.66 544.781C1032.34 550.104 1027 553.848 1020.79 553.848C1016.87 553.848 1013.32 552.353 1010.63 549.919C1007.34 553.307 1002.73 555.428 997.615 555.428C989.169 555.428 982.083 549.649 980.108 541.863C978.418 541.791 976.829 541.336 975.427 540.567C967.954 548.225 957.489 552.98 945.908 552.98C940.554 552.98 935.444 551.955 930.748 550.104C928.816 552.296 925.981 553.691 922.818 553.691C918.466 553.691 914.73 551.072 913.112 547.329C908.13 551.485 901.717 553.99 894.717 553.99C887.717 553.99 880.745 551.243 875.692 546.759C873.702 548.268 871.211 549.179 868.52 549.179C865.599 549.179 862.937 548.126 860.861 546.403C857.984 554.076 850.568 559.556 841.85 559.556C835.466 559.556 829.782 556.624 826.06 552.04C823.813 552.88 821.379 553.35 818.846 553.35C811.946 553.35 805.847 549.99 802.082 544.838C798.16 551.414 790.959 555.841 782.699 555.841C777.288 555.841 772.335 553.948 768.441 550.788C762.572 553.521 755.314 555.129 747.441 555.129C737.864 555.129 729.203 552.738 722.847 548.866C720.456 557.008 712.912 562.958 703.965 562.958C697.366 562.958 691.539 559.713 687.961 554.759C684.768 558.061 680.302 560.111 675.334 560.111C669.437 560.111 664.226 557.207 661.048 552.766C657.04 554.289 652.688 555.129 648.135 555.129C639.804 555.129 632.145 552.325 626.033 547.613C621.996 550.631 615.582 552.595 608.339 552.595C597.817 552.595 589.027 548.467 586.78 542.944C585.907 543.087 585.005 543.186 584.089 543.186C574.941 543.186 567.526 535.813 567.526 526.717C567.526 517.621 574.469 510.746 583.215 510.291L583.23 510.291Z" fill="url(#paint_linear_18_425_0)" fill-opacity="1.000000" fill-rule="nonzero"/>
	<g filter="url(#filter_18_387_dd)">
		<path id="Vector 1" d="M834.631 525.125L1016.69 611.191L1155.53 475.712L989.091 407.264L834.631 525.125Z" fill="url(#paint_linear_18_387_0)" fill-opacity="1.000000" fill-rule="evenodd"/>
	</g>
	<g filter="url(#filter_18_388_dd)">
		<path id="Vector 2" d="M862.344 499.334C866.264 499.603 882.459 503.81 915.875 518.487C957.645 536.834 993.534 546.309 1038.14 533.003C1073.83 522.358 1093.7 499.267 1099.18 489.052C1107.15 494.898 1123.99 507.358 1127.56 510.422C1132.02 514.253 1136.49 512.64 1138.72 509.011C1140.95 505.382 1138.92 503.568 1133.24 498.729C1127.56 493.89 1099.18 471.512 1069.77 459.818C1040.37 448.125 1024.15 443.286 990.087 439.052C956.022 434.818 929.46 439.859 904.52 452.157C879.579 464.455 866.805 477.157 856.058 488.245C845.312 499.334 843.689 503.971 843.284 505.785C842.878 507.6 843.892 510.422 849.367 509.818C854.842 509.213 858.086 505.181 859.302 503.568C860.276 502.277 861.736 500.208 862.344 499.334ZM956.834 447.52C915.956 448.81 883.161 475.073 871.874 488.044C874.713 488.044 881.404 489.858 893.976 493.487C906.547 497.116 935.34 509.011 949.737 514.455C964.133 519.898 1007.32 533.003 1041.39 518.487C1068.64 506.874 1083.43 489.186 1087.42 481.794C1084.1 479.845 1074.64 474.697 1063.29 469.697C1049.09 463.447 1007.93 445.907 956.834 447.52Z" fill="#FFFFFF" fill-opacity="1.000000" fill-rule="evenodd"/>
	</g>
	<g opacity="0.100000">
		<path id="Vector 4" d="M702.173 136.423L946.317 475.12C953.329 483.732 957.275 497.774 989.305 497.774C1021.33 497.774 1036.87 484.098 1039.3 475.12L1279.81 136.423L702.173 136.423Z" fill="url(#paint_radial_18_390_0)" fill-opacity="1.000000" fill-rule="evenodd"/>
	</g>
	<g opacity="0.200000">
		<path id="Vector 6" d="M858.514 176.544C855.953 203.967 977.623 417.241 994.177 487.87C985.445 409.552 874.725 185.514 858.514 176.544Z" fill="url(#paint_linear_18_392_0)" fill-opacity="1.000000" fill-rule="evenodd"/>
	</g>
	<g opacity="0.200000">
		<path id="Vector 5" d="M1166.48 74C1156.91 100.876 1001.08 420.222 999.342 491.62C1010.79 413.355 1180.22 84.3941 1166.48 74Z" fill="url(#paint_linear_18_393_0)" fill-opacity="1.000000" fill-rule="evenodd"/>
	</g>
	<g filter="url(#filter_18_389_dd)">
		<path id="Vector 3" d="M989.624 446.35C985.373 447.643 976.87 451.821 976.87 458.191C976.87 466.153 983.956 469.827 992.054 469.827C1000.15 469.827 1010.68 461.253 1010.68 456.558C1010.68 452.801 1009.06 451.046 1008.25 450.637C1016.55 452.815 1035.7 458.64 1045.91 464.519C1045.1 479.831 1017.77 499.429 987.802 499.429C957.839 499.429 947.311 481.26 947.311 467.173C947.311 455.904 954.195 448.596 957.637 446.35C962.293 445.738 975.21 444.88 989.624 446.35Z" fill="url(#paint_linear_18_389_0)" fill-opacity="1.000000" fill-rule="evenodd"/>
	</g>
	<path id="Vector" d="M1241.69 567.796C1241.06 566.402 1240.24 565.111 1239.27 563.955C1236.44 558.142 1230.48 554.125 1223.58 554.125C1220.16 554.125 1216.98 555.127 1214.28 556.83C1209.52 551.513 1202.59 548.167 1194.9 548.167C1187.21 548.167 1180.35 551.482 1175.58 556.758C1171.28 551.513 1164.76 548.167 1157.47 548.167C1150.93 548.167 1145.02 550.852 1140.77 555.178C1137.08 550.893 1131.63 548.167 1125.54 548.167C1122.5 548.167 1119.64 548.859 1117.05 550.067C1115.68 537.098 1104.72 527 1091.41 527C1078.09 527 1067.37 536.902 1065.82 549.675C1063.83 548.725 1061.61 548.167 1059.26 548.167C1051.14 548.167 1044.52 554.548 1044.08 562.571C1043 562.282 1041.87 562.107 1040.69 562.107C1037.59 562.107 1034.74 563.191 1032.49 564.987C1028.72 560.816 1023.28 558.193 1017.23 558.193C1014.15 558.193 1011.24 558.885 1008.62 560.093C1004.82 548.095 993.606 539.391 980.352 539.391C969.46 539.391 959.94 545.276 954.783 554.042C951.07 550.408 945.985 548.167 940.384 548.167C936.217 548.167 932.349 549.417 929.111 551.533C926.243 541.827 917.28 534.744 906.656 534.744C901.066 534.744 895.95 536.706 891.917 539.969C887.338 532.214 878.901 527.01 869.246 527.01C854.714 527.01 842.924 538.812 842.924 553.361C842.924 553.691 842.935 554.011 842.945 554.331C834.859 556.944 829 564.543 829 573.506C829 584.637 838.004 593.651 849.123 593.651C855.766 593.651 861.634 590.419 865.296 585.452C866.73 586.361 868.432 586.898 870.257 586.898C870.907 586.898 871.546 586.826 872.155 586.702C873.785 594.652 880.809 600.62 889.225 600.62C896.476 600.62 902.685 596.191 905.315 589.882C906.398 590.409 907.616 590.718 908.915 590.718C909.596 590.718 910.256 590.625 910.885 590.471C912.463 591.689 914.361 592.515 916.424 592.814C918.095 596.676 921.942 599.392 926.419 599.392C929.245 599.392 931.803 598.307 933.742 596.542C936.114 598.999 939.435 600.538 943.117 600.538C949.203 600.538 954.308 596.346 955.732 590.698C956.949 590.646 958.094 590.316 959.104 589.758C964.489 595.313 972.028 598.762 980.373 598.762C984.23 598.762 987.912 598.018 991.295 596.676C992.688 598.266 994.73 599.278 997.01 599.278C1000.15 599.278 1002.84 597.378 1004 594.663C1007.59 597.678 1012.21 599.495 1017.26 599.495C1022.3 599.495 1027.32 597.502 1030.96 594.25C1032.4 595.344 1034.19 596.005 1036.13 596.005C1038.24 596.005 1040.15 595.241 1041.65 593.991C1043.72 599.557 1049.07 603.532 1055.35 603.532C1059.95 603.532 1064.04 601.405 1066.72 598.08C1068.34 598.69 1070.1 599.03 1071.92 599.03C1076.89 599.03 1081.29 596.594 1084 592.856C1086.83 597.626 1092.01 600.837 1097.97 600.837C1101.86 600.837 1105.43 599.464 1108.24 597.172C1112.47 599.154 1117.7 600.321 1123.37 600.321C1130.27 600.321 1136.51 598.586 1141.09 595.778C1142.81 601.684 1148.25 606 1154.69 606C1159.45 606 1163.65 603.646 1166.23 600.052C1168.53 602.448 1171.74 603.935 1175.32 603.935C1179.57 603.935 1183.33 601.828 1185.62 598.607C1188.5 599.712 1191.64 600.321 1194.92 600.321C1200.92 600.321 1206.44 598.287 1210.85 594.869C1213.75 597.058 1218.38 598.483 1223.59 598.483C1231.18 598.483 1237.51 595.489 1239.13 591.482C1239.76 591.586 1240.41 591.658 1241.07 591.658C1247.66 591.658 1253 586.309 1253 579.711C1253 573.113 1248 568.126 1241.7 567.796L1241.69 567.796Z" fill="url(#paint_linear_18_433_0)" fill-opacity="1.000000" fill-rule="nonzero"/>
	<path id="Vector" d="M595.269 547.471C595.975 547.471 596.664 547.558 597.326 547.707C599.593 543.28 604.18 540.245 609.472 540.245C609.525 540.245 609.577 540.245 609.638 540.245C612.28 536.037 616.936 533.238 622.255 533.238C625.926 533.238 629.274 534.568 631.872 536.772C634.017 532.11 638.708 528.864 644.167 528.864C651.02 528.864 656.661 533.973 657.577 540.595C658.562 540.367 659.574 540.236 660.629 540.236C660.698 540.236 660.768 540.245 660.838 540.245C664.805 533.439 672.156 528.864 680.578 528.864C686.385 528.864 691.678 531.042 695.715 534.62C696.77 534.227 697.86 533.92 698.976 533.693C701.644 526.292 708.716 521 717.017 521C725.317 521 732.092 526.082 734.891 533.247C737.725 533.264 740.428 533.833 742.904 534.839C746.287 531.174 751.109 528.873 756.48 528.873C766.708 528.882 775 537.209 775 547.471C775 557.732 766.708 566.059 756.471 566.059C755.504 566.059 754.562 565.963 753.638 565.823C749.897 572.419 742.843 576.863 734.743 576.863C728.936 576.863 723.669 574.571 719.772 570.853C715.7 575.244 709.893 578 703.441 578C698.104 578 693.204 576.119 689.368 572.979C686.665 574.107 683.7 574.737 680.587 574.737C673.917 574.737 667.909 571.868 663.733 567.293C662.739 567.529 661.701 567.66 660.637 567.66C657.403 567.66 654.438 566.523 652.092 564.642C649.712 570.564 643.94 574.737 637.191 574.737C629.893 574.737 623.737 569.856 621.775 563.173C621.087 563.146 620.415 563.076 619.753 562.971C617.25 565.841 613.579 567.66 609.481 567.66C606.089 567.66 602.994 566.409 600.605 564.354C599.096 565.421 597.257 566.059 595.269 566.059C590.15 566.059 586 561.896 586 556.769C586 551.643 590.15 547.471 595.269 547.471Z" fill="url(#paint_linear_18_434_0)" fill-opacity="1.000000" fill-rule="nonzero"/>
</svg>
