<svg width="39.783569" height="39.783554" viewBox="0 0 39.7836 39.7836" fill="none" xmlns="http://www.w3.org/2000/svg" xmlns:xlink="http://www.w3.org/1999/xlink">
	<desc>
			Created with Pixso.
	</desc>
	<defs>
		<clipPath id="clip4_141">
			<rect id="Frame" width="36.000000" height="36.000000" transform="translate(0.000000 4.007278) rotate(-6.391031)" fill="white" fill-opacity="0"/>
		</clipPath>
	</defs>
	<rect id="Frame" width="36.000000" height="36.000000" transform="translate(0.000000 4.007278) rotate(-6.391031)" fill="#FFFFFF" fill-opacity="0"/>
	<g clip-path="url(#clip4_141)">
		<path id="Vector" d="M36.8973 18.9932C36.6678 16.944 36.0831 15.0202 35.2107 13.2775C35.3534 18.6842 32.8064 21.7548 29.6796 20.8079C26.7506 19.9205 28.1096 15.0298 27.9987 12.7812C27.8092 8.96957 27.0774 4.66428 19.7979 1.83199C23.2672 6.97778 21.1213 10.6565 18.4951 11.16C15.5812 11.7188 12.5803 9.26457 13.0732 4.68123C10.121 7.41284 10.4746 11.4144 11.7566 13.885C13.0935 16.4602 12.2667 18.8168 9.76929 19.3482C6.97815 19.9426 5.04028 16.8178 5.89709 11.3967C3.72485 14.6236 2.64172 18.609 3.10864 22.7779C4.15381 32.1085 12.5647 38.825 21.8954 37.7799C31.2261 36.7348 37.9425 28.3239 36.8973 18.9932Z" fill="#FF6B00" fill-opacity="1.000000" fill-rule="nonzero"/>
		<path id="Vector" d="M30.8889 24.6965C31.3794 27.7449 28.8218 29.2479 27.3079 28.8298C25.1211 28.2265 25.5214 26.7246 24.6488 23.8036C23.7762 20.8826 21.4742 19.0444 18.3083 18.4762C21.2494 24.5194 18.0339 27.2282 16.2587 27.8466C14.4458 28.4783 12.5289 28.2634 11.8694 24.3062C9.94092 26.7098 8.93213 29.8496 9.30212 33.153C9.34314 33.5187 9.40625 33.8759 9.47815 34.2301C12.8668 36.9035 17.2664 38.2984 21.8954 37.7799C26.5245 37.2614 30.5065 34.9277 33.2196 31.5708C33.2114 31.2095 33.194 30.8472 33.153 30.4814C32.9095 28.308 32.1011 26.3368 30.8889 24.6965Z" fill="#FFF500" fill-opacity="1.000000" fill-rule="nonzero"/>
	</g>
</svg>
