<svg width="346.456543" height="313.343750" viewBox="0 0 346.457 313.344" fill="none" xmlns="http://www.w3.org/2000/svg" xmlns:xlink="http://www.w3.org/1999/xlink">
	<desc>
			Created with Pixso.
	</desc>
	<defs>
		<linearGradient id="paint_linear_47_38_0" x1="97.686081" y1="-2.417770" x2="339.592285" y2="246.850266" gradientUnits="userSpaceOnUse">
			<stop stop-color="#85FF5A"/>
			<stop offset="0.489583" stop-color="#FFFB8F" stop-opacity="0.941176"/>
			<stop offset="0.854167" stop-color="#FA00FF"/>
		</linearGradient>
		<linearGradient id="paint_linear_47_43_0" x1="109.285004" y1="87.000000" x2="159.255737" y2="240.866302" gradientUnits="userSpaceOnUse">
			<stop stop-color="#42576A"/>
			<stop offset="1.000000" stop-color="#8598CA" stop-opacity="0.000000"/>
		</linearGradient>
		<radialGradient id="paint_radial_47_43_1" cx="0.000000" cy="0.000000" r="1.000000" gradientUnits="userSpaceOnUse" gradientTransform="translate(110.439 249.695) rotate(12.3285) scale(99.5543 99.5543)">
			<stop stop-color="#BADEFF"/>
			<stop offset="1.000000" stop-color="#72A3D1" stop-opacity="0.000000"/>
		</radialGradient>
		<linearGradient id="paint_linear_47_43_2" x1="159.331711" y1="87.000000" x2="159.331711" y2="240.866302" gradientUnits="userSpaceOnUse">
			<stop stop-color="#3C8798"/>
			<stop offset="1.000000" stop-color="#262121"/>
		</linearGradient>
	</defs>
	<rect id="Rectangle 29" x="101.890015" width="243.501846" height="243.501846" transform="rotate(20.4945 101.890015 0.000000)" fill="#0C0C0C" fill-opacity="1.000000"/>
	<rect id="Rectangle 29" x="101.890015" width="243.501846" height="243.501846" transform="rotate(20.4945 101.890015 0.000000)" fill="url(#paint_linear_47_38_0)" fill-opacity="1.000000"/>
	<mask id="mask47_41" mask-type="alpha" maskUnits="userSpaceOnUse" x="7.398560" y="84.000000" width="321.350098" height="149.521484">
		<path id="Union" d="M57.7358 126.318C46.6477 135.565 38.0349 148.13 33.1006 164.411C38.2481 164.918 43.5244 166.485 48.3543 168.193C56.4127 171.043 65.7612 175.278 75.6007 179.801C76.6077 180.264 77.6222 180.73 78.644 181.201C97.9761 190.099 119.943 200.21 142.8 206.452C166.836 213.016 190.648 214.94 212.268 207.35C231.243 200.688 249.851 186.226 265.791 158.183C218.338 123.089 167.678 105.529 125.589 105.263C97.8212 105.087 74.4205 112.404 57.7358 126.318Z" fill="#F2F2F2" fill-opacity="1.000000" fill-rule="nonzero"/>
	</mask>
	<g mask="url(#mask47_41)">
		<path id="Subtract" d="M159.332 87C116.843 87 82.3986 121.444 82.3986 163.933C82.3986 206.422 116.843 240.866 159.332 240.866C201.821 240.866 236.265 206.422 236.265 163.933C236.265 121.444 201.821 87 159.332 87ZM159.945 143.229C145.896 143.229 134.506 154.619 134.506 168.669C134.506 182.718 145.896 194.108 159.945 194.108C173.995 194.108 185.385 182.718 185.385 168.669C185.385 154.619 173.995 143.229 159.945 143.229Z" clip-rule="evenodd" fill="#45758F" fill-opacity="1.000000" fill-rule="evenodd"/>
		<path id="Subtract" d="M159.332 87C116.843 87 82.3986 121.444 82.3986 163.933C82.3986 206.422 116.843 240.866 159.332 240.866C201.821 240.866 236.265 206.422 236.265 163.933C236.265 121.444 201.821 87 159.332 87ZM159.945 143.229C145.896 143.229 134.506 154.619 134.506 168.669C134.506 182.718 145.896 194.108 159.945 194.108C173.995 194.108 185.385 182.718 185.385 168.669C185.385 154.619 173.995 143.229 159.945 143.229Z" clip-rule="evenodd" fill="url(#paint_linear_47_43_0)" fill-opacity="1.000000" fill-rule="evenodd"/>
		<path id="Subtract" d="M159.332 87C116.843 87 82.3986 121.444 82.3986 163.933C82.3986 206.422 116.843 240.866 159.332 240.866C201.821 240.866 236.265 206.422 236.265 163.933C236.265 121.444 201.821 87 159.332 87ZM159.945 143.229C145.896 143.229 134.506 154.619 134.506 168.669C134.506 182.718 145.896 194.108 159.945 194.108C173.995 194.108 185.385 182.718 185.385 168.669C185.385 154.619 173.995 143.229 159.945 143.229Z" clip-rule="evenodd" fill="url(#paint_radial_47_43_1)" fill-opacity="1.000000" fill-rule="evenodd"/>
		<path id="Subtract" d="M159.332 87C116.843 87 82.3986 121.444 82.3986 163.933C82.3986 206.422 116.843 240.866 159.332 240.866C201.821 240.866 236.265 206.422 236.265 163.933C236.265 121.444 201.821 87 159.332 87ZM159.945 143.229C145.896 143.229 134.506 154.619 134.506 168.669C134.506 182.718 145.896 194.108 159.945 194.108C173.995 194.108 185.385 182.718 185.385 168.669C185.385 154.619 173.995 143.229 159.945 143.229Z" clip-rule="evenodd" fill="url(#paint_linear_47_43_2)" fill-opacity="1.000000" fill-rule="evenodd"/>
	</g>
	<path id="Union" d="M16.4768 183.714C16.0912 186.884 15.8079 190.146 15.6309 193.5C15.4034 197.813 11.7224 201.125 7.40906 200.898C3.09576 200.671 -0.216431 196.99 0.0110474 192.676C1.987 155.213 16.1428 126.563 39.0793 107.435C61.8817 88.4182 92.5576 79.4758 126.518 79.6909C194.319 80.1201 277.068 116.949 344.305 187.701C347.28 190.832 347.154 195.782 344.023 198.757C340.892 201.733 335.942 201.607 332.967 198.476C321.767 186.691 310.154 175.916 298.281 166.151C278.344 201.478 253.849 221.609 226.985 231.04C197.293 241.464 165.956 238.371 136.96 230.452C109.594 222.978 83.5057 210.965 62.0116 201.066L61.9865 201.055C60.7325 200.478 59.4943 199.907 58.2722 199.345C47.0443 194.185 37.3574 189.818 29.2944 186.966C23.5433 184.932 19.3718 183.962 16.4768 183.714ZM19.402 167.979C24.7412 147.104 35.1758 131.057 49.0974 119.447C68.3698 103.375 95.1396 95.134 126.419 95.332C174.464 95.6362 232.045 115.911 285.575 156.155C266.934 190.15 244.737 207.888 221.696 215.977C196.3 224.893 168.6 222.543 141.166 215.051C115.119 207.937 90.1295 196.434 68.4331 186.447C67.259 185.906 66.0945 185.37 64.9401 184.839C53.8375 179.736 43.4845 175.051 34.6176 171.915C29.5255 170.114 24.325 168.59 19.402 167.979Z" fill="#FFFFFF" fill-opacity="1.000000" fill-rule="evenodd"/>
</svg>
