<svg width="118.000000" height="108.000000" viewBox="0 0 118 108" fill="none" xmlns="http://www.w3.org/2000/svg" xmlns:xlink="http://www.w3.org/1999/xlink">
	<desc>
			Created with Pixso.
	</desc>
	<defs>
		<linearGradient id="paint_linear_3_4_0" x1="46.031601" y1="2.715988" x2="121.914276" y2="80.148651" gradientUnits="userSpaceOnUse">
			<stop stop-color="#85FF5A"/>
			<stop offset="0.489583" stop-color="#FFFB8F" stop-opacity="0.419608"/>
			<stop offset="0.854167" stop-color="#FA00FF"/>
		</linearGradient>
	</defs>
	<rect id="Rectangle 1" x="44.735840" width="79.061485" height="79.061485" transform="rotate(30 44.735840 0.000000)" fill="url(#paint_linear_3_4_0)" fill-opacity="1.000000"/>
	<path id="DSG" d="M3.00991 57.9738L19.3252 57.9738Q24.8521 57.9738 29.0751 59.9815Q33.3097 61.9892 35.652 65.7276Q37.9943 69.4545 37.9943 74.5083Q37.9943 79.5737 35.652 83.3121Q33.3097 87.039 29.0751 89.0467Q24.8521 91.0544 19.3252 91.0544L3.00991 91.0544L3.00991 57.9738ZM18.8521 82.3544Q22.4405 82.3544 24.5867 80.3006Q26.7444 78.2467 26.7444 74.5083Q26.7444 70.7814 24.5867 68.7276Q22.4405 66.6622 18.8521 66.6622L14.1675 66.6622L14.1675 82.3544L18.8521 82.3544ZM59.3561 91.8159Q55.2369 91.8159 51.337 90.8928Q47.437 89.9697 44.9332 88.4121L48.5331 80.2775Q50.887 81.6506 53.8177 82.4813Q56.7485 83.3006 59.4485 83.3006Q61.7561 83.3006 62.7484 82.8506Q63.7407 82.4006 63.7407 81.5121Q63.7407 80.4621 62.4369 79.9429Q61.1446 79.4237 58.1677 78.8121Q54.337 78.016 51.787 77.0929Q49.237 76.1698 47.3447 74.0699Q45.4524 71.9583 45.4524 68.3699Q45.4524 65.2545 47.1947 62.7046Q48.9485 60.143 52.4216 58.6777Q55.9062 57.2123 60.8677 57.2123Q64.2715 57.2123 67.5484 57.9507Q70.8368 58.6777 73.3407 60.0969L69.983 68.1853Q65.1138 65.7276 60.7638 65.7276Q56.4716 65.7276 56.4716 67.8045Q56.4716 68.7968 57.7408 69.293Q59.0215 69.7891 61.9523 70.3545Q65.7253 71.0583 68.3215 71.9814Q70.9291 72.9045 72.8445 74.9929Q74.7599 77.0698 74.7599 80.6583Q74.7599 83.7736 73.0061 86.3005Q71.2638 88.8274 67.7907 90.3274Q64.3176 91.8159 59.3561 91.8159ZM104.911 73.6199L114.604 73.6199L114.604 87.6044Q111.673 89.6351 107.796 90.7313Q103.919 91.8159 100.181 91.8159Q94.8961 91.8159 90.6846 89.6236Q86.4731 87.4198 84.0846 83.4736Q81.7077 79.5275 81.7077 74.5083Q81.7077 69.5007 84.0846 65.5545Q86.4731 61.6084 90.7538 59.4161Q95.0346 57.2123 100.423 57.2123Q105.292 57.2123 109.134 58.8507Q112.988 60.4777 115.55 63.593L108.408 69.8814Q105.292 66.2468 100.988 66.2468Q97.2961 66.2468 95.1269 68.4737Q92.9577 70.6891 92.9577 74.5083Q92.9577 78.2467 95.1038 80.5198Q97.2499 82.7813 100.85 82.7813Q102.973 82.7813 104.911 81.9852L104.911 73.6199Z" fill="#FFFFFF" fill-opacity="1.000000" fill-rule="evenodd"/>
	<path id="PLN" d="M18.6229 18.9195Q23.2037 18.9195 26.6075 20.431Q30.0113 21.9425 31.8459 24.781Q33.6921 27.6079 33.6921 31.3925Q33.6921 35.177 31.8459 38.0155Q30.0113 40.8424 26.6075 42.3539Q23.2037 43.8654 18.6229 43.8654L13.8461 43.8654L13.8461 52L2.68844 52L2.68844 18.9195L18.6229 18.9195ZM17.9076 35.2694Q20.1806 35.2694 21.3114 34.254Q22.4537 33.2386 22.4537 31.3925Q22.4537 29.5463 21.3114 28.5309Q20.1806 27.5156 17.9076 27.5156L13.8461 27.5156L13.8461 35.2694L17.9076 35.2694ZM45.129 18.9195L56.2866 18.9195L56.2866 43.3462L71.2173 43.3462L71.2173 52L45.129 52L45.129 18.9195ZM114.706 18.9195L114.706 52L105.533 52L92.9679 36.9655L92.9679 52L82.0872 52L82.0872 18.9195L91.2603 18.9195L103.837 33.9424L103.837 18.9195L114.706 18.9195Z" fill="#FFFFFF" fill-opacity="1.000000" fill-rule="evenodd"/>
</svg>
