<svg width="31.432495" height="31.432373" viewBox="0 0 31.4325 31.4324" fill="none" xmlns="http://www.w3.org/2000/svg" xmlns:xlink="http://www.w3.org/1999/xlink">
	<desc>
			Created with Pixso.
	</desc>
	<defs>
		<clipPath id="clip4_230">
			<rect id="mdi:instagram" width="31.432465" height="31.432465" fill="white" fill-opacity="0"/>
		</clipPath>
	</defs>
	<rect id="mdi:instagram" width="31.432465" height="31.432465" fill="#FFFFFF" fill-opacity="0"/>
	<g clip-path="url(#clip4_230)">
		<path id="Vector" d="M10.2157 2.61938L21.217 2.61938C25.4081 2.61938 28.8132 6.02466 28.8132 10.2156L28.8132 21.217C28.8132 23.2314 28.0129 25.1636 26.5884 26.5881C25.1638 28.0127 23.2317 28.813 21.217 28.813L10.2157 28.813C6.02466 28.813 2.61951 25.408 2.61951 21.217L2.61951 10.2156C2.61951 8.20093 3.4198 6.2688 4.84436 4.84424C6.26892 3.41968 8.20105 2.61938 10.2157 2.61938ZM9.95374 5.23877C8.70325 5.23877 7.50403 5.7356 6.61987 6.61963C5.7356 7.50391 5.23889 8.70312 5.23889 9.95361L5.23889 21.4788C5.23889 24.0852 7.34741 26.1938 9.95374 26.1938L21.479 26.1938C22.7295 26.1938 23.9287 25.697 24.8129 24.8127C25.6971 23.9285 26.1938 22.7292 26.1938 21.4788L26.1938 9.95361C26.1938 7.34741 24.0852 5.23877 21.479 5.23877L9.95374 5.23877ZM22.5922 7.20337C23.0264 7.20337 23.4429 7.37573 23.7499 7.68286C24.0569 7.98975 24.2294 8.40625 24.2294 8.84033C24.2294 9.27466 24.0569 9.69092 23.7499 9.99805C23.4429 10.3049 23.0264 10.4775 22.5922 10.4775C22.1581 10.4775 21.7416 10.3049 21.4346 9.99805C21.1276 9.69092 20.9551 9.27466 20.9551 8.84033C20.9551 8.40625 21.1276 7.98975 21.4346 7.68286C21.7416 7.37573 22.1581 7.20337 22.5922 7.20337ZM15.7163 9.16772C17.4531 9.16772 19.1188 9.85767 20.3468 11.0857C21.5748 12.314 22.2648 13.9795 22.2648 15.7163C22.2648 17.4529 21.5748 19.1187 20.3468 20.3467C19.1188 21.5747 17.4531 22.2646 15.7163 22.2646C13.9796 22.2646 12.314 21.5747 11.0859 20.3467C9.85791 19.1187 9.16797 17.4529 9.16797 15.7163C9.16797 13.9795 9.85791 12.314 11.0859 11.0857C12.314 9.85767 13.9796 9.16772 15.7163 9.16772ZM15.7163 11.7871C14.6743 11.7871 13.6749 12.2012 12.9381 12.938C12.2013 13.6748 11.7874 14.6741 11.7874 15.7163C11.7874 16.7583 12.2013 17.7576 12.9381 18.4946C13.6749 19.2314 14.6743 19.6453 15.7163 19.6453C16.7584 19.6453 17.7578 19.2314 18.4946 18.4946C19.2314 17.7576 19.6454 16.7583 19.6454 15.7163C19.6454 14.6741 19.2314 13.6748 18.4946 12.938C17.7578 12.2012 16.7584 11.7871 15.7163 11.7871Z" fill="#85FF5A" fill-opacity="1.000000" fill-rule="nonzero"/>
	</g>
</svg>
