<svg width="31.432495" height="31.432373" viewBox="0 0 31.4325 31.4324" fill="none" xmlns="http://www.w3.org/2000/svg" xmlns:xlink="http://www.w3.org/1999/xlink">
	<desc>
			Created with Pixso.
	</desc>
	<defs>
		<clipPath id="clip4_234">
			<rect id="mdi:instagram" width="31.432465" height="31.432465" fill="white" fill-opacity="0"/>
		</clipPath>
	</defs>
	<rect id="mdi:instagram" width="31.432465" height="31.432465" fill="#FFFFFF" fill-opacity="0"/>
	<g clip-path="url(#clip4_234)">
		<path id="Vector" d="M7.47961 2.61938C6.19214 2.62451 4.95886 3.13794 4.04858 4.04834C3.13818 4.95874 2.62451 6.19214 2.61951 7.47949L2.61951 23.9529C2.62451 25.2405 3.13818 26.4736 4.04858 27.384C4.95886 28.2944 6.19214 28.8081 7.47961 28.813L23.9531 28.813C25.2406 28.8081 26.4739 28.2944 27.3842 27.384C28.2946 26.4736 28.8082 25.2405 28.8132 23.9529L28.8132 7.47949C28.8082 6.19214 28.2946 4.95874 27.3842 4.04834C26.4739 3.13794 25.2406 2.62451 23.9531 2.61938L7.47961 2.61938ZM7.47961 5.00073L23.9531 5.00073C24.2792 4.99878 24.6024 5.06152 24.9039 5.18555C25.2056 5.30933 25.4796 5.49194 25.7102 5.72241C25.9407 5.95312 26.1233 6.22705 26.2472 6.52856C26.3711 6.83032 26.4338 7.15356 26.432 7.47949L26.432 23.9529C26.4338 24.2791 26.3711 24.6023 26.2472 24.9038C26.1233 25.2056 25.9407 25.4795 25.7102 25.71C25.4796 25.9407 25.2056 26.123 24.9039 26.2471C24.6024 26.3708 24.2792 26.4338 23.9531 26.4319L7.47961 26.4319C7.15356 26.4338 6.8302 26.3711 6.52856 26.2473C6.22693 26.1235 5.95276 25.9409 5.72217 25.7104C5.49158 25.4797 5.30908 25.2058 5.1853 24.9041C5.0614 24.6023 4.99866 24.2791 5.00073 23.9529L5.00073 7.47949C4.9989 7.15356 5.06165 6.83032 5.18555 6.52856C5.30945 6.22705 5.49207 5.95312 5.72253 5.72241C5.95312 5.49194 6.22717 5.30933 6.52881 5.18555C6.83032 5.06152 7.15356 4.99878 7.47961 5.00073ZM15.3818 11.2275C14.5067 11.2192 13.7626 11.2275 13.3446 11.4324C13.0648 11.5681 12.8517 11.874 12.9814 11.8884C13.1447 11.9121 13.5114 11.9907 13.7078 12.2563C13.9578 12.5957 13.9495 13.3635 13.9495 13.3635C13.9495 13.3635 14.0887 15.4746 13.609 15.74C13.2792 15.9211 12.8279 15.5532 11.8516 13.8743C11.3539 13.01 10.9777 12.0562 10.9777 12.0562C10.9777 12.0562 10.9062 11.8789 10.7777 11.7859C10.6193 11.6704 10.4003 11.6323 10.4003 11.6323L8.07019 11.6467C8.07019 11.6467 7.72131 11.6609 7.59631 11.8098C7.47961 11.9492 7.58679 12.2229 7.58679 12.2229C7.58679 12.2229 9.40967 16.4878 11.4741 18.637C13.3673 20.6096 15.5164 20.4788 15.5164 20.4788L16.4927 20.4788C16.4927 20.4788 16.7855 20.4465 16.9343 20.2883C17.0748 20.1394 17.0701 19.8596 17.0701 19.8596C17.0701 19.8596 17.051 18.5535 17.6559 18.3582C18.256 18.1714 19.0179 19.6226 19.8324 20.1812C20.4515 20.6038 20.9205 20.511 20.9205 20.511L23.0983 20.4788C23.0983 20.4788 24.2329 20.4084 23.6936 19.5107C23.6519 19.4417 23.3816 18.8511 22.0802 17.6416C20.7123 16.377 20.8944 16.5818 22.5398 14.3911C23.5399 13.0564 23.9401 12.2419 23.8138 11.8884C23.6947 11.5586 22.959 11.6467 22.959 11.6467L20.5074 11.6609C20.5074 11.6609 20.3264 11.6372 20.1919 11.717C20.0994 11.7856 20.0258 11.8765 19.9777 11.9812C19.9777 11.9812 19.587 13.0134 19.0703 13.8933C17.9822 15.7437 17.5404 15.8459 17.3641 15.7305C16.9498 15.4602 17.0522 14.6506 17.0522 14.0791C17.0522 12.2788 17.326 11.5347 16.5225 11.3408C16.257 11.2751 16.0616 11.2336 15.3829 11.2275L15.3818 11.2275Z" fill="#85FF5A" fill-opacity="1.000000" fill-rule="nonzero"/>
	</g>
</svg>
