<svg width="31.432495" height="31.432373" viewBox="0 0 31.4325 31.4324" fill="none" xmlns="http://www.w3.org/2000/svg" xmlns:xlink="http://www.w3.org/1999/xlink">
	<desc>
			Created with Pixso.
	</desc>
	<defs>
		<clipPath id="clip4_232">
			<rect id="mdi:instagram" width="31.432465" height="31.432465" fill="white" fill-opacity="0"/>
		</clipPath>
	</defs>
	<rect id="mdi:instagram" width="31.432465" height="31.432465" fill="#FFFFFF" fill-opacity="0"/>
	<g clip-path="url(#clip4_232)">
		<path id="Vector" d="M27.0453 5.57617C26.8633 5.41089 26.642 5.30103 26.405 5.2583C26.1682 5.21582 25.9247 5.24194 25.7009 5.33423L5.10852 13.8247C4.73474 13.978 4.41846 14.2551 4.20703 14.6143C3.99561 14.9736 3.90063 15.3953 3.9364 15.8162C3.97217 16.2371 4.13672 16.6343 4.40527 16.9482C4.67383 17.2622 5.03186 17.4756 5.42554 17.5566L10.433 18.5918L10.433 24.5076C10.433 24.9346 10.554 25.3516 10.7806 25.7053C11.0072 26.0591 11.3291 26.3335 11.7047 26.4932C12.0804 26.6531 12.4929 26.6907 12.889 26.6016C13.2853 26.5127 13.6472 26.3008 13.9283 25.9937L16.2318 23.4768L20.0199 26.97C20.2842 27.2148 20.6042 27.3831 20.9487 27.4585C21.2933 27.5339 21.6505 27.5137 21.9854 27.3999C22.3203 27.2861 22.6215 27.0828 22.8594 26.8096C23.0973 26.5364 23.2638 26.2029 23.3425 25.8416L27.47 6.94116C27.5237 6.69458 27.5126 6.43701 27.4377 6.19653C27.3628 5.95605 27.2272 5.7417 27.0453 5.57617ZM17.689 11.3958L11.3698 16.167L7.87134 15.4446L17.689 11.3958ZM12.8716 23.4436L12.8716 20.3701L14.3958 21.7778L12.8716 23.4436ZM21.1183 24.5698L13.6113 17.636L24.4136 9.48047L21.1183 24.5698Z" fill="#85FF5A" fill-opacity="1.000000" fill-rule="nonzero"/>
	</g>
</svg>
